<svg width="1067" height="400" viewBox="0 0 1067 400" fill="none" xmlns="http://www.w3.org/2000/svg">
<g clip-path="url(#clip0_63_336)">
<rect x="0.286865" width="1066.67" height="400" fill="#0E1027"/>
<g clip-path="url(#clip1_63_336)">
<mask id="mask0_63_336" style="mask-type:alpha" maskUnits="userSpaceOnUse" x="0" y="0" width="1069" height="478">
<path d="M1069 0H0V477.919H1069V0Z" fill="url(#paint0_radial_63_336)" fill-opacity="0.7"/>
</mask>
<g mask="url(#mask0_63_336)">
<g opacity="0.14">
<path d="M5.86866 0.6763H-23.4747V29.9827H5.86866V0.6763Z" stroke="#E2E7F0" stroke-width="1.5"/>
<path d="M35.212 0.6763H5.86866V29.9827H35.212V0.6763Z" stroke="#E2E7F0" stroke-width="1.5"/>
<path d="M64.5553 0.6763H35.212V29.9827H64.5553V0.6763Z" fill="#E2E7F0" fill-opacity="0.3" stroke="#E2E7F0" stroke-width="1.5"/>
<path d="M93.8986 0.6763H64.5553V29.9827H93.8986V0.6763Z" stroke="#E2E7F0" stroke-width="1.5"/>
<path d="M123.242 0.6763H93.8986V29.9827H123.242V0.6763Z" stroke="#E2E7F0" stroke-width="1.5"/>
<path d="M152.585 0.6763H123.242V29.9827H152.585V0.6763Z" stroke="#E2E7F0" stroke-width="1.5"/>
<path d="M181.929 0.6763H152.585V29.9827H181.929V0.6763Z" stroke="#E2E7F0" stroke-width="1.5"/>
<path d="M211.272 0.6763H181.929V29.9827H211.272V0.6763Z" stroke="#E2E7F0" stroke-width="1.5"/>
<path d="M240.615 0.6763H211.272V29.9827H240.615V0.6763Z" fill="#E2E7F0" fill-opacity="0.3" stroke="#E2E7F0" stroke-width="1.5"/>
<path d="M269.959 0.6763H240.615V29.9827H269.959V0.6763Z" stroke="#E2E7F0" stroke-width="1.5"/>
<path d="M299.302 0.6763H269.959V29.9827H299.302V0.6763Z" stroke="#E2E7F0" stroke-width="1.5"/>
<path d="M328.645 0.6763H299.302V29.9827H328.645V0.6763Z" stroke="#E2E7F0" stroke-width="1.5"/>
<path d="M357.989 0.6763H328.645V29.9827H357.989V0.6763Z" stroke="#E2E7F0" stroke-width="1.5"/>
<path d="M387.332 0.6763H357.989V29.9827H387.332V0.6763Z" stroke="#E2E7F0" stroke-width="1.5"/>
<path d="M416.675 0.6763H387.332V29.9827H416.675V0.6763Z" stroke="#E2E7F0" stroke-width="1.5"/>
<path d="M446.019 0.6763H416.675V29.9827H446.019V0.6763Z" stroke="#E2E7F0" stroke-width="1.5"/>
<path d="M475.362 0.6763H446.019V29.9827H475.362V0.6763Z" stroke="#E2E7F0" stroke-width="1.5"/>
<path d="M504.705 0.6763H475.362V29.9827H504.705V0.6763Z" stroke="#E2E7F0" stroke-width="1.5"/>
<path d="M534.049 0.6763H504.705V29.9827H534.049V0.6763Z" stroke="#E2E7F0" stroke-width="1.5"/>
<path d="M563.392 0.6763H534.049V29.9827H563.392V0.6763Z" stroke="#E2E7F0" stroke-width="1.5"/>
<path d="M592.735 0.6763H563.392V29.9827H592.735V0.6763Z" stroke="#E2E7F0" stroke-width="1.5"/>
<path d="M622.078 0.6763H592.735V29.9827H622.078V0.6763Z" stroke="#E2E7F0" stroke-width="1.5"/>
<path d="M651.422 0.6763H622.079V29.9827H651.422V0.6763Z" stroke="#E2E7F0" stroke-width="1.5"/>
<path d="M680.765 0.6763H651.422V29.9827H680.765V0.6763Z" stroke="#E2E7F0" stroke-width="1.5"/>
<path d="M710.109 0.6763H680.765V29.9827H710.109V0.6763Z" stroke="#E2E7F0" stroke-width="1.5"/>
<path d="M739.452 0.6763H710.109V29.9827H739.452V0.6763Z" fill="#E2E7F0" fill-opacity="0.3" stroke="#E2E7F0" stroke-width="1.5"/>
<path d="M768.795 0.6763H739.452V29.9827H768.795V0.6763Z" stroke="#E2E7F0" stroke-width="1.5"/>
<path d="M798.138 0.6763H768.795V29.9827H798.138V0.6763Z" stroke="#E2E7F0" stroke-width="1.5"/>
<path d="M827.482 0.6763H798.139V29.9827H827.482V0.6763Z" fill="#E2E7F0" fill-opacity="0.3" stroke="#E2E7F0" stroke-width="1.5"/>
<path d="M856.825 0.6763H827.482V29.9827H856.825V0.6763Z" stroke="#E2E7F0" stroke-width="1.5"/>
<path d="M886.168 0.6763H856.825V29.9827H886.168V0.6763Z" stroke="#E2E7F0" stroke-width="1.5"/>
<path d="M915.512 0.6763H886.168V29.9827H915.512V0.6763Z" stroke="#E2E7F0" stroke-width="1.5"/>
<path d="M944.855 0.6763H915.512V29.9827H944.855V0.6763Z" stroke="#E2E7F0" stroke-width="1.5"/>
<path d="M974.199 0.6763H944.855V29.9827H974.199V0.6763Z" stroke="#E2E7F0" stroke-width="1.5"/>
<path d="M1003.54 0.6763H974.198V29.9827H1003.54V0.6763Z" stroke="#E2E7F0" stroke-width="1.5"/>
<path d="M1032.89 0.6763H1003.54V29.9827H1032.89V0.6763Z" stroke="#E2E7F0" stroke-width="1.5"/>
<path d="M1062.23 0.6763H1032.89V29.9827H1062.23V0.6763Z" stroke="#E2E7F0" stroke-width="1.5"/>
<path d="M1091.57 0.6763H1062.23V29.9827H1091.57V0.6763Z" fill="#E2E7F0" fill-opacity="0.3" stroke="#E2E7F0" stroke-width="1.5"/>
<path d="M5.86866 29.9827H-23.4747V59.289H5.86866V29.9827Z" stroke="#E2E7F0" stroke-width="1.5"/>
<path d="M35.212 29.9827H5.86866V59.289H35.212V29.9827Z" stroke="#E2E7F0" stroke-width="1.5"/>
<path d="M64.5553 29.9827H35.212V59.289H64.5553V29.9827Z" stroke="#E2E7F0" stroke-width="1.5"/>
<path d="M93.8986 29.9827H64.5553V59.289H93.8986V29.9827Z" stroke="#E2E7F0" stroke-width="1.5"/>
<path d="M123.242 29.9827H93.8986V59.289H123.242V29.9827Z" stroke="#E2E7F0" stroke-width="1.5"/>
<path d="M152.585 29.9827H123.242V59.289H152.585V29.9827Z" stroke="#E2E7F0" stroke-width="1.5"/>
<path d="M181.929 29.9827H152.585V59.289H181.929V29.9827Z" fill="#E2E7F0" fill-opacity="0.3" stroke="#E2E7F0" stroke-width="1.5"/>
<path d="M211.272 29.9827H181.929V59.289H211.272V29.9827Z" stroke="#E2E7F0" stroke-width="1.5"/>
<path d="M240.615 29.9827H211.272V59.289H240.615V29.9827Z" stroke="#E2E7F0" stroke-width="1.5"/>
<path d="M269.959 29.9827H240.615V59.289H269.959V29.9827Z" stroke="#E2E7F0" stroke-width="1.5"/>
<path d="M299.302 29.9827H269.959V59.289H299.302V29.9827Z" stroke="#E2E7F0" stroke-width="1.5"/>
<path d="M328.645 29.9827H299.302V59.289H328.645V29.9827Z" stroke="#E2E7F0" stroke-width="1.5"/>
<path d="M357.989 29.9827H328.645V59.289H357.989V29.9827Z" stroke="#E2E7F0" stroke-width="1.5"/>
<path d="M387.332 29.9827H357.989V59.289H387.332V29.9827Z" stroke="#E2E7F0" stroke-width="1.5"/>
<path d="M416.675 29.9827H387.332V59.289H416.675V29.9827Z" stroke="#E2E7F0" stroke-width="1.5"/>
<path d="M446.019 29.9827H416.675V59.289H446.019V29.9827Z" stroke="#E2E7F0" stroke-width="1.5"/>
<path d="M475.362 29.9827H446.019V59.289H475.362V29.9827Z" stroke="#E2E7F0" stroke-width="1.5"/>
<path d="M504.705 29.9827H475.362V59.289H504.705V29.9827Z" stroke="#E2E7F0" stroke-width="1.5"/>
<path d="M534.049 29.9827H504.705V59.289H534.049V29.9827Z" stroke="#E2E7F0" stroke-width="1.5"/>
<path d="M563.392 29.9827H534.049V59.289H563.392V29.9827Z" stroke="#E2E7F0" stroke-width="1.5"/>
<path d="M592.735 29.9827H563.392V59.289H592.735V29.9827Z" stroke="#E2E7F0" stroke-width="1.5"/>
<path d="M622.078 29.9827H592.735V59.289H622.078V29.9827Z" stroke="#E2E7F0" stroke-width="1.5"/>
<path d="M651.422 29.9827H622.079V59.289H651.422V29.9827Z" stroke="#E2E7F0" stroke-width="1.5"/>
<path d="M680.765 29.9827H651.422V59.289H680.765V29.9827Z" stroke="#E2E7F0" stroke-width="1.5"/>
<path d="M710.109 29.9827H680.765V59.289H710.109V29.9827Z" stroke="#E2E7F0" stroke-width="1.5"/>
<path d="M739.452 29.9827H710.109V59.289H739.452V29.9827Z" stroke="#E2E7F0" stroke-width="1.5"/>
<path d="M768.795 29.9827H739.452V59.289H768.795V29.9827Z" stroke="#E2E7F0" stroke-width="1.5"/>
<path d="M798.138 29.9827H768.795V59.289H798.138V29.9827Z" stroke="#E2E7F0" stroke-width="1.5"/>
<path d="M827.482 29.9827H798.139V59.289H827.482V29.9827Z" stroke="#E2E7F0" stroke-width="1.5"/>
<path d="M856.825 29.9827H827.482V59.289H856.825V29.9827Z" stroke="#E2E7F0" stroke-width="1.5"/>
<path d="M886.168 29.9827H856.825V59.289H886.168V29.9827Z" stroke="#E2E7F0" stroke-width="1.5"/>
<path d="M915.512 29.9827H886.168V59.289H915.512V29.9827Z" stroke="#E2E7F0" stroke-width="1.5"/>
<path d="M944.855 29.9827H915.512V59.289H944.855V29.9827Z" fill="#E2E7F0" fill-opacity="0.3" stroke="#E2E7F0" stroke-width="1.5"/>
<path d="M974.199 29.9827H944.855V59.289H974.199V29.9827Z" stroke="#E2E7F0" stroke-width="1.5"/>
<path d="M1003.54 29.9827H974.198V59.289H1003.54V29.9827Z" stroke="#E2E7F0" stroke-width="1.5"/>
<path d="M1032.89 29.9827H1003.54V59.289H1032.89V29.9827Z" stroke="#E2E7F0" stroke-width="1.5"/>
<path d="M1062.23 29.9827H1032.89V59.289H1062.23V29.9827Z" stroke="#E2E7F0" stroke-width="1.5"/>
<path d="M1091.57 29.9827H1062.23V59.289H1091.57V29.9827Z" stroke="#E2E7F0" stroke-width="1.5"/>
<path d="M5.86866 59.289H-23.4747V88.5954H5.86866V59.289Z" stroke="#E2E7F0" stroke-width="1.5"/>
<path d="M35.212 59.289H5.86866V88.5954H35.212V59.289Z" stroke="#E2E7F0" stroke-width="1.5"/>
<path d="M64.5553 59.289H35.212V88.5954H64.5553V59.289Z" stroke="#E2E7F0" stroke-width="1.5"/>
<path d="M93.8986 59.289H64.5553V88.5954H93.8986V59.289Z" stroke="#E2E7F0" stroke-width="1.5"/>
<path d="M123.242 59.289H93.8986V88.5954H123.242V59.289Z" stroke="#E2E7F0" stroke-width="1.5"/>
<path d="M152.585 59.289H123.242V88.5954H152.585V59.289Z" stroke="#E2E7F0" stroke-width="1.5"/>
<path d="M181.929 59.289H152.585V88.5954H181.929V59.289Z" stroke="#E2E7F0" stroke-width="1.5"/>
<path d="M211.272 59.289H181.929V88.5954H211.272V59.289Z" stroke="#E2E7F0" stroke-width="1.5"/>
<path d="M240.615 59.289H211.272V88.5954H240.615V59.289Z" stroke="#E2E7F0" stroke-width="1.5"/>
<path d="M269.959 59.289H240.615V88.5954H269.959V59.289Z" stroke="#E2E7F0" stroke-width="1.5"/>
<path d="M299.302 59.289H269.959V88.5954H299.302V59.289Z" stroke="#E2E7F0" stroke-width="1.5"/>
<path d="M328.645 59.289H299.302V88.5954H328.645V59.289Z" stroke="#E2E7F0" stroke-width="1.5"/>
<path d="M357.989 59.289H328.645V88.5954H357.989V59.289Z" stroke="#E2E7F0" stroke-width="1.5"/>
<path d="M387.332 59.289H357.989V88.5954H387.332V59.289Z" stroke="#E2E7F0" stroke-width="1.5"/>
<path d="M416.675 59.289H387.332V88.5954H416.675V59.289Z" stroke="#E2E7F0" stroke-width="1.5"/>
<path d="M446.019 59.289H416.675V88.5954H446.019V59.289Z" stroke="#E2E7F0" stroke-width="1.5"/>
<path d="M475.362 59.289H446.019V88.5954H475.362V59.289Z" stroke="#E2E7F0" stroke-width="1.5"/>
<path d="M504.705 59.289H475.362V88.5954H504.705V59.289Z" stroke="#E2E7F0" stroke-width="1.5"/>
<path d="M534.049 59.289H504.705V88.5954H534.049V59.289Z" stroke="#E2E7F0" stroke-width="1.5"/>
<path d="M563.392 59.289H534.049V88.5954H563.392V59.289Z" stroke="#E2E7F0" stroke-width="1.5"/>
<path d="M592.735 59.289H563.392V88.5954H592.735V59.289Z" stroke="#E2E7F0" stroke-width="1.5"/>
<path d="M622.078 59.289H592.735V88.5954H622.078V59.289Z" stroke="#E2E7F0" stroke-width="1.5"/>
<path d="M651.422 59.289H622.079V88.5954H651.422V59.289Z" stroke="#E2E7F0" stroke-width="1.5"/>
<path d="M680.765 59.289H651.422V88.5954H680.765V59.289Z" stroke="#E2E7F0" stroke-width="1.5"/>
<path d="M710.109 59.289H680.765V88.5954H710.109V59.289Z" stroke="#E2E7F0" stroke-width="1.5"/>
<path d="M739.452 59.289H710.109V88.5954H739.452V59.289Z" stroke="#E2E7F0" stroke-width="1.5"/>
<path d="M768.795 59.289H739.452V88.5954H768.795V59.289Z" stroke="#E2E7F0" stroke-width="1.5"/>
<path d="M798.138 59.289H768.795V88.5954H798.138V59.289Z" stroke="#E2E7F0" stroke-width="1.5"/>
<path d="M827.482 59.289H798.139V88.5954H827.482V59.289Z" stroke="#E2E7F0" stroke-width="1.5"/>
<path d="M856.825 59.289H827.482V88.5954H856.825V59.289Z" stroke="#E2E7F0" stroke-width="1.5"/>
<path d="M886.168 59.289H856.825V88.5954H886.168V59.289Z" stroke="#E2E7F0" stroke-width="1.5"/>
<path d="M915.512 59.289H886.168V88.5954H915.512V59.289Z" stroke="#E2E7F0" stroke-width="1.5"/>
<path d="M944.855 59.289H915.512V88.5954H944.855V59.289Z" stroke="#E2E7F0" stroke-width="1.5"/>
<path d="M974.199 59.289H944.855V88.5954H974.199V59.289Z" stroke="#E2E7F0" stroke-width="1.5"/>
<path d="M1003.54 59.289H974.198V88.5954H1003.54V59.289Z" stroke="#E2E7F0" stroke-width="1.5"/>
<path d="M1032.89 59.289H1003.54V88.5954H1032.89V59.289Z" stroke="#E2E7F0" stroke-width="1.5"/>
<path d="M1062.23 59.289H1032.89V88.5954H1062.23V59.289Z" stroke="#E2E7F0" stroke-width="1.5"/>
<path d="M1091.57 59.289H1062.23V88.5954H1091.57V59.289Z" stroke="#E2E7F0" stroke-width="1.5"/>
<path d="M5.86866 88.5954H-23.4747V117.902H5.86866V88.5954Z" stroke="#E2E7F0" stroke-width="1.5"/>
<path d="M35.212 88.5954H5.86866V117.902H35.212V88.5954Z" stroke="#E2E7F0" stroke-width="1.5"/>
<path d="M64.5553 88.5954H35.212V117.902H64.5553V88.5954Z" stroke="#E2E7F0" stroke-width="1.5"/>
<path d="M93.8986 88.5954H64.5553V117.902H93.8986V88.5954Z" stroke="#E2E7F0" stroke-width="1.5"/>
<path d="M123.242 88.5954H93.8986V117.902H123.242V88.5954Z" stroke="#E2E7F0" stroke-width="1.5"/>
<path d="M152.585 88.5954H123.242V117.902H152.585V88.5954Z" stroke="#E2E7F0" stroke-width="1.5"/>
<path d="M181.929 88.5954H152.585V117.902H181.929V88.5954Z" stroke="#E2E7F0" stroke-width="1.5"/>
<path d="M211.272 88.5954H181.929V117.902H211.272V88.5954Z" stroke="#E2E7F0" stroke-width="1.5"/>
<path d="M240.615 88.5954H211.272V117.902H240.615V88.5954Z" stroke="#E2E7F0" stroke-width="1.5"/>
<path d="M269.959 88.5954H240.615V117.902H269.959V88.5954Z" stroke="#E2E7F0" stroke-width="1.5"/>
<path d="M299.302 88.5954H269.959V117.902H299.302V88.5954Z" stroke="#E2E7F0" stroke-width="1.5"/>
<path d="M328.645 88.5954H299.302V117.902H328.645V88.5954Z" stroke="#E2E7F0" stroke-width="1.5"/>
<path d="M357.989 88.5954H328.645V117.902H357.989V88.5954Z" stroke="#E2E7F0" stroke-width="1.5"/>
<path d="M387.332 88.5954H357.989V117.902H387.332V88.5954Z" stroke="#E2E7F0" stroke-width="1.5"/>
<path d="M416.675 88.5954H387.332V117.902H416.675V88.5954Z" stroke="#E2E7F0" stroke-width="1.5"/>
<path d="M446.019 88.5954H416.675V117.902H446.019V88.5954Z" stroke="#E2E7F0" stroke-width="1.5"/>
<path d="M475.362 88.5954H446.019V117.902H475.362V88.5954Z" stroke="#E2E7F0" stroke-width="1.5"/>
<path d="M504.705 88.5954H475.362V117.902H504.705V88.5954Z" stroke="#E2E7F0" stroke-width="1.5"/>
<path d="M534.049 88.5954H504.705V117.902H534.049V88.5954Z" stroke="#E2E7F0" stroke-width="1.5"/>
<path d="M563.392 88.5954H534.049V117.902H563.392V88.5954Z" stroke="#E2E7F0" stroke-width="1.5"/>
<path d="M592.735 88.5954H563.392V117.902H592.735V88.5954Z" stroke="#E2E7F0" stroke-width="1.5"/>
<path d="M622.078 88.5954H592.735V117.902H622.078V88.5954Z" stroke="#E2E7F0" stroke-width="1.5"/>
<path d="M651.422 88.5954H622.079V117.902H651.422V88.5954Z" stroke="#E2E7F0" stroke-width="1.5"/>
<path d="M680.765 88.5954H651.422V117.902H680.765V88.5954Z" stroke="#E2E7F0" stroke-width="1.5"/>
<path d="M710.109 88.5954H680.765V117.902H710.109V88.5954Z" stroke="#E2E7F0" stroke-width="1.5"/>
<path d="M739.452 88.5954H710.109V117.902H739.452V88.5954Z" stroke="#E2E7F0" stroke-width="1.5"/>
<path d="M768.795 88.5954H739.452V117.902H768.795V88.5954Z" stroke="#E2E7F0" stroke-width="1.5"/>
<path d="M798.138 88.5954H768.795V117.902H798.138V88.5954Z" stroke="#E2E7F0" stroke-width="1.5"/>
<path d="M827.482 88.5954H798.139V117.902H827.482V88.5954Z" stroke="#E2E7F0" stroke-width="1.5"/>
<path d="M856.825 88.5954H827.482V117.902H856.825V88.5954Z" fill="#E2E7F0" fill-opacity="0.3" stroke="#E2E7F0" stroke-width="1.5"/>
<path d="M886.168 88.5954H856.825V117.902H886.168V88.5954Z" stroke="#E2E7F0" stroke-width="1.5"/>
<path d="M915.512 88.5954H886.168V117.902H915.512V88.5954Z" stroke="#E2E7F0" stroke-width="1.5"/>
<path d="M944.855 88.5954H915.512V117.902H944.855V88.5954Z" stroke="#E2E7F0" stroke-width="1.5"/>
<path d="M974.199 88.5954H944.855V117.902H974.199V88.5954Z" stroke="#E2E7F0" stroke-width="1.5"/>
<path d="M1003.54 88.5954H974.198V117.902H1003.54V88.5954Z" fill="#E2E7F0" fill-opacity="0.3" stroke="#E2E7F0" stroke-width="1.5"/>
<path d="M1032.89 88.5954H1003.54V117.902H1032.89V88.5954Z" stroke="#E2E7F0" stroke-width="1.5"/>
<path d="M1062.23 88.5954H1032.89V117.902H1062.23V88.5954Z" stroke="#E2E7F0" stroke-width="1.5"/>
<path d="M1091.57 88.5954H1062.23V117.902H1091.57V88.5954Z" fill="#E2E7F0" fill-opacity="0.3" stroke="#E2E7F0" stroke-width="1.5"/>
<path d="M5.86866 117.902H-23.4747V147.208H5.86866V117.902Z" stroke="#E2E7F0" stroke-width="1.5"/>
<path d="M35.212 117.902H5.86866V147.208H35.212V117.902Z" fill="#E2E7F0" fill-opacity="0.3" stroke="#E2E7F0" stroke-width="1.5"/>
<path d="M64.5553 117.902H35.212V147.208H64.5553V117.902Z" stroke="#E2E7F0" stroke-width="1.5"/>
<path d="M93.8986 117.902H64.5553V147.208H93.8986V117.902Z" stroke="#E2E7F0" stroke-width="1.5"/>
<path d="M123.242 117.902H93.8986V147.208H123.242V117.902Z" stroke="#E2E7F0" stroke-width="1.5"/>
<path d="M152.585 117.902H123.242V147.208H152.585V117.902Z" stroke="#E2E7F0" stroke-width="1.5"/>
<path d="M181.929 117.902H152.585V147.208H181.929V117.902Z" fill="#E2E7F0" fill-opacity="0.3" stroke="#E2E7F0" stroke-width="1.5"/>
<path d="M211.272 117.902H181.929V147.208H211.272V117.902Z" stroke="#E2E7F0" stroke-width="1.5"/>
<path d="M240.615 117.902H211.272V147.208H240.615V117.902Z" stroke="#E2E7F0" stroke-width="1.5"/>
<path d="M269.959 117.902H240.615V147.208H269.959V117.902Z" stroke="#E2E7F0" stroke-width="1.5"/>
<path d="M299.302 117.902H269.959V147.208H299.302V117.902Z" stroke="#E2E7F0" stroke-width="1.5"/>
<path d="M328.645 117.902H299.302V147.208H328.645V117.902Z" stroke="#E2E7F0" stroke-width="1.5"/>
<path d="M357.989 117.902H328.645V147.208H357.989V117.902Z" stroke="#E2E7F0" stroke-width="1.5"/>
<path d="M387.332 117.902H357.989V147.208H387.332V117.902Z" stroke="#E2E7F0" stroke-width="1.5"/>
<path d="M416.675 117.902H387.332V147.208H416.675V117.902Z" stroke="#E2E7F0" stroke-width="1.5"/>
<path d="M446.019 117.902H416.675V147.208H446.019V117.902Z" stroke="#E2E7F0" stroke-width="1.5"/>
<path d="M475.362 117.902H446.019V147.208H475.362V117.902Z" stroke="#E2E7F0" stroke-width="1.5"/>
<path d="M504.705 117.902H475.362V147.208H504.705V117.902Z" stroke="#E2E7F0" stroke-width="1.5"/>
<path d="M534.049 117.902H504.705V147.208H534.049V117.902Z" stroke="#E2E7F0" stroke-width="1.5"/>
<path d="M563.392 117.902H534.049V147.208H563.392V117.902Z" stroke="#E2E7F0" stroke-width="1.5"/>
<path d="M592.735 117.902H563.392V147.208H592.735V117.902Z" stroke="#E2E7F0" stroke-width="1.5"/>
<path d="M622.078 117.902H592.735V147.208H622.078V117.902Z" stroke="#E2E7F0" stroke-width="1.5"/>
<path d="M651.422 117.902H622.079V147.208H651.422V117.902Z" stroke="#E2E7F0" stroke-width="1.5"/>
<path d="M680.765 117.902H651.422V147.208H680.765V117.902Z" stroke="#E2E7F0" stroke-width="1.5"/>
<path d="M710.109 117.902H680.765V147.208H710.109V117.902Z" stroke="#E2E7F0" stroke-width="1.5"/>
<path d="M739.452 117.902H710.109V147.208H739.452V117.902Z" stroke="#E2E7F0" stroke-width="1.5"/>
<path d="M768.795 117.902H739.452V147.208H768.795V117.902Z" stroke="#E2E7F0" stroke-width="1.5"/>
<path d="M798.138 117.902H768.795V147.208H798.138V117.902Z" stroke="#E2E7F0" stroke-width="1.5"/>
<path d="M827.482 117.902H798.139V147.208H827.482V117.902Z" stroke="#E2E7F0" stroke-width="1.5"/>
<path d="M856.825 117.902H827.482V147.208H856.825V117.902Z" stroke="#E2E7F0" stroke-width="1.5"/>
<path d="M886.168 117.902H856.825V147.208H886.168V117.902Z" stroke="#E2E7F0" stroke-width="1.5"/>
<path d="M915.512 117.902H886.168V147.208H915.512V117.902Z" stroke="#E2E7F0" stroke-width="1.5"/>
<path d="M944.855 117.902H915.512V147.208H944.855V117.902Z" stroke="#E2E7F0" stroke-width="1.5"/>
<path d="M974.199 117.902H944.855V147.208H974.199V117.902Z" stroke="#E2E7F0" stroke-width="1.5"/>
<path d="M1003.54 117.902H974.198V147.208H1003.54V117.902Z" stroke="#E2E7F0" stroke-width="1.5"/>
<path d="M1032.89 117.902H1003.54V147.208H1032.89V117.902Z" stroke="#E2E7F0" stroke-width="1.5"/>
<path d="M1062.23 117.902H1032.89V147.208H1062.23V117.902Z" stroke="#E2E7F0" stroke-width="1.5"/>
<path d="M1091.57 117.902H1062.23V147.208H1091.57V117.902Z" stroke="#E2E7F0" stroke-width="1.5"/>
<path d="M5.86866 147.208H-23.4747V176.514H5.86866V147.208Z" stroke="#E2E7F0" stroke-width="1.5"/>
<path d="M35.212 147.208H5.86866V176.514H35.212V147.208Z" stroke="#E2E7F0" stroke-width="1.5"/>
<path d="M64.5553 147.208H35.212V176.514H64.5553V147.208Z" stroke="#E2E7F0" stroke-width="1.5"/>
<path d="M93.8986 147.208H64.5553V176.514H93.8986V147.208Z" stroke="#E2E7F0" stroke-width="1.5"/>
<path d="M123.242 147.208H93.8986V176.514H123.242V147.208Z" stroke="#E2E7F0" stroke-width="1.5"/>
<path d="M152.585 147.208H123.242V176.514H152.585V147.208Z" stroke="#E2E7F0" stroke-width="1.5"/>
<path d="M181.929 147.208H152.585V176.514H181.929V147.208Z" stroke="#E2E7F0" stroke-width="1.5"/>
<path d="M211.272 147.208H181.929V176.514H211.272V147.208Z" stroke="#E2E7F0" stroke-width="1.5"/>
<path d="M240.615 147.208H211.272V176.514H240.615V147.208Z" stroke="#E2E7F0" stroke-width="1.5"/>
<path d="M269.959 147.208H240.615V176.514H269.959V147.208Z" stroke="#E2E7F0" stroke-width="1.5"/>
<path d="M299.302 147.208H269.959V176.514H299.302V147.208Z" stroke="#E2E7F0" stroke-width="1.5"/>
<path d="M328.645 147.208H299.302V176.514H328.645V147.208Z" stroke="#E2E7F0" stroke-width="1.5"/>
<path d="M357.989 147.208H328.645V176.514H357.989V147.208Z" stroke="#E2E7F0" stroke-width="1.5"/>
<path d="M387.332 147.208H357.989V176.514H387.332V147.208Z" stroke="#E2E7F0" stroke-width="1.5"/>
<path d="M416.675 147.208H387.332V176.514H416.675V147.208Z" stroke="#E2E7F0" stroke-width="1.5"/>
<path d="M446.019 147.208H416.675V176.514H446.019V147.208Z" stroke="#E2E7F0" stroke-width="1.5"/>
<path d="M475.362 147.208H446.019V176.514H475.362V147.208Z" stroke="#E2E7F0" stroke-width="1.5"/>
<path d="M504.705 147.208H475.362V176.514H504.705V147.208Z" stroke="#E2E7F0" stroke-width="1.5"/>
<path d="M534.049 147.208H504.705V176.514H534.049V147.208Z" stroke="#E2E7F0" stroke-width="1.5"/>
<path d="M563.392 147.208H534.049V176.514H563.392V147.208Z" stroke="#E2E7F0" stroke-width="1.5"/>
<path d="M592.735 147.208H563.392V176.514H592.735V147.208Z" stroke="#E2E7F0" stroke-width="1.5"/>
<path d="M622.078 147.208H592.735V176.514H622.078V147.208Z" stroke="#E2E7F0" stroke-width="1.5"/>
<path d="M651.422 147.208H622.079V176.514H651.422V147.208Z" stroke="#E2E7F0" stroke-width="1.5"/>
<path d="M680.765 147.208H651.422V176.514H680.765V147.208Z" stroke="#E2E7F0" stroke-width="1.5"/>
<path d="M710.109 147.208H680.765V176.514H710.109V147.208Z" stroke="#E2E7F0" stroke-width="1.5"/>
<path d="M739.452 147.208H710.109V176.514H739.452V147.208Z" stroke="#E2E7F0" stroke-width="1.5"/>
<path d="M768.795 147.208H739.452V176.514H768.795V147.208Z" stroke="#E2E7F0" stroke-width="1.5"/>
<path d="M798.138 147.208H768.795V176.514H798.138V147.208Z" stroke="#E2E7F0" stroke-width="1.5"/>
<path d="M827.482 147.208H798.139V176.514H827.482V147.208Z" stroke="#E2E7F0" stroke-width="1.5"/>
<path d="M856.825 147.208H827.482V176.514H856.825V147.208Z" fill="#E2E7F0" fill-opacity="0.3" stroke="#E2E7F0" stroke-width="1.5"/>
<path d="M886.168 147.208H856.825V176.514H886.168V147.208Z" stroke="#E2E7F0" stroke-width="1.5"/>
<path d="M915.512 147.208H886.168V176.514H915.512V147.208Z" stroke="#E2E7F0" stroke-width="1.5"/>
<path d="M944.855 147.208H915.512V176.514H944.855V147.208Z" stroke="#E2E7F0" stroke-width="1.5"/>
<path d="M974.199 147.208H944.855V176.514H974.199V147.208Z" stroke="#E2E7F0" stroke-width="1.5"/>
<path d="M1003.54 147.208H974.198V176.514H1003.54V147.208Z" stroke="#E2E7F0" stroke-width="1.5"/>
<path d="M1032.89 147.208H1003.54V176.514H1032.89V147.208Z" stroke="#E2E7F0" stroke-width="1.5"/>
<path d="M1062.23 147.208H1032.89V176.514H1062.23V147.208Z" stroke="#E2E7F0" stroke-width="1.5"/>
<path d="M1091.57 147.208H1062.23V176.514H1091.57V147.208Z" stroke="#E2E7F0" stroke-width="1.5"/>
<path d="M5.86866 176.514H-23.4747V205.821H5.86866V176.514Z" stroke="#E2E7F0" stroke-width="1.5"/>
<path d="M35.212 176.514H5.86866V205.821H35.212V176.514Z" stroke="#E2E7F0" stroke-width="1.5"/>
<path d="M64.5553 176.514H35.212V205.821H64.5553V176.514Z" stroke="#E2E7F0" stroke-width="1.5"/>
<path d="M93.8986 176.514H64.5553V205.821H93.8986V176.514Z" stroke="#E2E7F0" stroke-width="1.5"/>
<path d="M123.242 176.514H93.8986V205.821H123.242V176.514Z" stroke="#E2E7F0" stroke-width="1.5"/>
<path d="M152.585 176.514H123.242V205.821H152.585V176.514Z" stroke="#E2E7F0" stroke-width="1.5"/>
<path d="M181.929 176.514H152.585V205.821H181.929V176.514Z" stroke="#E2E7F0" stroke-width="1.5"/>
<path d="M211.272 176.514H181.929V205.821H211.272V176.514Z" stroke="#E2E7F0" stroke-width="1.5"/>
<path d="M240.615 176.514H211.272V205.821H240.615V176.514Z" stroke="#E2E7F0" stroke-width="1.5"/>
<path d="M269.959 176.514H240.615V205.821H269.959V176.514Z" stroke="#E2E7F0" stroke-width="1.5"/>
<path d="M299.302 176.514H269.959V205.821H299.302V176.514Z" stroke="#E2E7F0" stroke-width="1.5"/>
<path d="M328.645 176.514H299.302V205.821H328.645V176.514Z" stroke="#E2E7F0" stroke-width="1.5"/>
<path d="M357.989 176.514H328.645V205.821H357.989V176.514Z" stroke="#E2E7F0" stroke-width="1.5"/>
<path d="M387.332 176.514H357.989V205.821H387.332V176.514Z" stroke="#E2E7F0" stroke-width="1.5"/>
<path d="M416.675 176.514H387.332V205.821H416.675V176.514Z" stroke="#E2E7F0" stroke-width="1.5"/>
<path d="M446.019 176.514H416.675V205.821H446.019V176.514Z" stroke="#E2E7F0" stroke-width="1.5"/>
<path d="M475.362 176.514H446.019V205.821H475.362V176.514Z" stroke="#E2E7F0" stroke-width="1.5"/>
<path d="M504.705 176.514H475.362V205.821H504.705V176.514Z" stroke="#E2E7F0" stroke-width="1.5"/>
<path d="M534.049 176.514H504.705V205.821H534.049V176.514Z" stroke="#E2E7F0" stroke-width="1.5"/>
<path d="M563.392 176.514H534.049V205.821H563.392V176.514Z" stroke="#E2E7F0" stroke-width="1.5"/>
<path d="M592.735 176.514H563.392V205.821H592.735V176.514Z" stroke="#E2E7F0" stroke-width="1.5"/>
<path d="M622.078 176.514H592.735V205.821H622.078V176.514Z" stroke="#E2E7F0" stroke-width="1.5"/>
<path d="M651.422 176.514H622.079V205.821H651.422V176.514Z" stroke="#E2E7F0" stroke-width="1.5"/>
<path d="M680.765 176.514H651.422V205.821H680.765V176.514Z" stroke="#E2E7F0" stroke-width="1.5"/>
<path d="M710.109 176.514H680.765V205.821H710.109V176.514Z" stroke="#E2E7F0" stroke-width="1.5"/>
<path d="M739.452 176.514H710.109V205.821H739.452V176.514Z" stroke="#E2E7F0" stroke-width="1.5"/>
<path d="M768.795 176.514H739.452V205.821H768.795V176.514Z" stroke="#E2E7F0" stroke-width="1.5"/>
<path d="M798.138 176.514H768.795V205.821H798.138V176.514Z" stroke="#E2E7F0" stroke-width="1.5"/>
<path d="M827.482 176.514H798.139V205.821H827.482V176.514Z" stroke="#E2E7F0" stroke-width="1.5"/>
<path d="M856.825 176.514H827.482V205.821H856.825V176.514Z" stroke="#E2E7F0" stroke-width="1.5"/>
<path d="M886.168 176.514H856.825V205.821H886.168V176.514Z" stroke="#E2E7F0" stroke-width="1.5"/>
<path d="M915.512 176.514H886.168V205.821H915.512V176.514Z" stroke="#E2E7F0" stroke-width="1.5"/>
<path d="M944.855 176.514H915.512V205.821H944.855V176.514Z" stroke="#E2E7F0" stroke-width="1.5"/>
<path d="M974.199 176.514H944.855V205.821H974.199V176.514Z" stroke="#E2E7F0" stroke-width="1.5"/>
<path d="M1003.54 176.514H974.198V205.821H1003.54V176.514Z" fill="#E2E7F0" fill-opacity="0.3" stroke="#E2E7F0" stroke-width="1.5"/>
<path d="M1032.89 176.514H1003.54V205.821H1032.89V176.514Z" stroke="#E2E7F0" stroke-width="1.5"/>
<path d="M1062.23 176.514H1032.89V205.821H1062.23V176.514Z" stroke="#E2E7F0" stroke-width="1.5"/>
<path d="M1091.57 176.514H1062.23V205.821H1091.57V176.514Z" stroke="#E2E7F0" stroke-width="1.5"/>
<path d="M5.86866 205.821H-23.4747V235.127H5.86866V205.821Z" fill="#E2E7F0" fill-opacity="0.3" stroke="#E2E7F0" stroke-width="1.5"/>
<path d="M35.212 205.821H5.86866V235.127H35.212V205.821Z" stroke="#E2E7F0" stroke-width="1.5"/>
<path d="M64.5553 205.821H35.212V235.127H64.5553V205.821Z" stroke="#E2E7F0" stroke-width="1.5"/>
<path d="M93.8986 205.821H64.5553V235.127H93.8986V205.821Z" stroke="#E2E7F0" stroke-width="1.5"/>
<path d="M123.242 205.821H93.8986V235.127H123.242V205.821Z" stroke="#E2E7F0" stroke-width="1.5"/>
<path d="M152.585 205.821H123.242V235.127H152.585V205.821Z" stroke="#E2E7F0" stroke-width="1.5"/>
<path d="M181.929 205.821H152.585V235.127H181.929V205.821Z" fill="#E2E7F0" fill-opacity="0.3" stroke="#E2E7F0" stroke-width="1.5"/>
<path d="M211.272 205.821H181.929V235.127H211.272V205.821Z" stroke="#E2E7F0" stroke-width="1.5"/>
<path d="M240.615 205.821H211.272V235.127H240.615V205.821Z" stroke="#E2E7F0" stroke-width="1.5"/>
<path d="M269.959 205.821H240.615V235.127H269.959V205.821Z" stroke="#E2E7F0" stroke-width="1.5"/>
<path d="M299.302 205.821H269.959V235.127H299.302V205.821Z" stroke="#E2E7F0" stroke-width="1.5"/>
<path d="M328.645 205.821H299.302V235.127H328.645V205.821Z" stroke="#E2E7F0" stroke-width="1.5"/>
<path d="M357.989 205.821H328.645V235.127H357.989V205.821Z" stroke="#E2E7F0" stroke-width="1.5"/>
<path d="M387.332 205.821H357.989V235.127H387.332V205.821Z" stroke="#E2E7F0" stroke-width="1.5"/>
<path d="M416.675 205.821H387.332V235.127H416.675V205.821Z" stroke="#E2E7F0" stroke-width="1.5"/>
<path d="M446.019 205.821H416.675V235.127H446.019V205.821Z" stroke="#E2E7F0" stroke-width="1.5"/>
<path d="M475.362 205.821H446.019V235.127H475.362V205.821Z" stroke="#E2E7F0" stroke-width="1.5"/>
<path d="M504.705 205.821H475.362V235.127H504.705V205.821Z" stroke="#E2E7F0" stroke-width="1.5"/>
<path d="M534.049 205.821H504.705V235.127H534.049V205.821Z" stroke="#E2E7F0" stroke-width="1.5"/>
<path d="M563.392 205.821H534.049V235.127H563.392V205.821Z" stroke="#E2E7F0" stroke-width="1.5"/>
<path d="M592.735 205.821H563.392V235.127H592.735V205.821Z" stroke="#E2E7F0" stroke-width="1.5"/>
<path d="M622.078 205.821H592.735V235.127H622.078V205.821Z" stroke="#E2E7F0" stroke-width="1.5"/>
<path d="M651.422 205.821H622.079V235.127H651.422V205.821Z" stroke="#E2E7F0" stroke-width="1.5"/>
<path d="M680.765 205.821H651.422V235.127H680.765V205.821Z" stroke="#E2E7F0" stroke-width="1.5"/>
<path d="M710.109 205.821H680.765V235.127H710.109V205.821Z" stroke="#E2E7F0" stroke-width="1.5"/>
<path d="M739.452 205.821H710.109V235.127H739.452V205.821Z" stroke="#E2E7F0" stroke-width="1.5"/>
<path d="M768.795 205.821H739.452V235.127H768.795V205.821Z" stroke="#E2E7F0" stroke-width="1.5"/>
<path d="M798.138 205.821H768.795V235.127H798.138V205.821Z" stroke="#E2E7F0" stroke-width="1.5"/>
<path d="M827.482 205.821H798.139V235.127H827.482V205.821Z" stroke="#E2E7F0" stroke-width="1.5"/>
<path d="M856.825 205.821H827.482V235.127H856.825V205.821Z" stroke="#E2E7F0" stroke-width="1.5"/>
<path d="M886.168 205.821H856.825V235.127H886.168V205.821Z" fill="#E2E7F0" fill-opacity="0.3" stroke="#E2E7F0" stroke-width="1.5"/>
<path d="M915.512 205.821H886.168V235.127H915.512V205.821Z" stroke="#E2E7F0" stroke-width="1.5"/>
<path d="M944.855 205.821H915.512V235.127H944.855V205.821Z" stroke="#E2E7F0" stroke-width="1.5"/>
<path d="M974.199 205.821H944.855V235.127H974.199V205.821Z" stroke="#E2E7F0" stroke-width="1.5"/>
<path d="M1003.54 205.821H974.198V235.127H1003.54V205.821Z" stroke="#E2E7F0" stroke-width="1.5"/>
<path d="M1032.89 205.821H1003.54V235.127H1032.89V205.821Z" stroke="#E2E7F0" stroke-width="1.5"/>
<path d="M1062.23 205.821H1032.89V235.127H1062.23V205.821Z" stroke="#E2E7F0" stroke-width="1.5"/>
<path d="M1091.57 205.821H1062.23V235.127H1091.57V205.821Z" stroke="#E2E7F0" stroke-width="1.5"/>
<path d="M5.86866 235.127H-23.4747V264.434H5.86866V235.127Z" stroke="#E2E7F0" stroke-width="1.5"/>
<path d="M35.212 235.127H5.86866V264.434H35.212V235.127Z" stroke="#E2E7F0" stroke-width="1.5"/>
<path d="M64.5553 235.127H35.212V264.434H64.5553V235.127Z" stroke="#E2E7F0" stroke-width="1.5"/>
<path d="M93.8986 235.127H64.5553V264.434H93.8986V235.127Z" stroke="#E2E7F0" stroke-width="1.5"/>
<path d="M123.242 235.127H93.8986V264.434H123.242V235.127Z" stroke="#E2E7F0" stroke-width="1.5"/>
<path d="M152.585 235.127H123.242V264.434H152.585V235.127Z" fill="#E2E7F0" fill-opacity="0.3" stroke="#E2E7F0" stroke-width="1.5"/>
<path d="M181.929 235.127H152.585V264.434H181.929V235.127Z" stroke="#E2E7F0" stroke-width="1.5"/>
<path d="M211.272 235.127H181.929V264.434H211.272V235.127Z" stroke="#E2E7F0" stroke-width="1.5"/>
<path d="M240.615 235.127H211.272V264.434H240.615V235.127Z" stroke="#E2E7F0" stroke-width="1.5"/>
<path d="M269.959 235.127H240.615V264.434H269.959V235.127Z" stroke="#E2E7F0" stroke-width="1.5"/>
<path d="M299.302 235.127H269.959V264.434H299.302V235.127Z" stroke="#E2E7F0" stroke-width="1.5"/>
<path d="M328.645 235.127H299.302V264.434H328.645V235.127Z" stroke="#E2E7F0" stroke-width="1.5"/>
<path d="M357.989 235.127H328.645V264.434H357.989V235.127Z" stroke="#E2E7F0" stroke-width="1.5"/>
<path d="M387.332 235.127H357.989V264.434H387.332V235.127Z" stroke="#E2E7F0" stroke-width="1.5"/>
<path d="M416.675 235.127H387.332V264.434H416.675V235.127Z" stroke="#E2E7F0" stroke-width="1.5"/>
<path d="M446.019 235.127H416.675V264.434H446.019V235.127Z" stroke="#E2E7F0" stroke-width="1.5"/>
<path d="M475.362 235.127H446.019V264.434H475.362V235.127Z" stroke="#E2E7F0" stroke-width="1.5"/>
<path d="M504.705 235.127H475.362V264.434H504.705V235.127Z" stroke="#E2E7F0" stroke-width="1.5"/>
<path d="M534.049 235.127H504.705V264.434H534.049V235.127Z" stroke="#E2E7F0" stroke-width="1.5"/>
<path d="M563.392 235.127H534.049V264.434H563.392V235.127Z" stroke="#E2E7F0" stroke-width="1.5"/>
<path d="M592.735 235.127H563.392V264.434H592.735V235.127Z" stroke="#E2E7F0" stroke-width="1.5"/>
<path d="M622.078 235.127H592.735V264.434H622.078V235.127Z" stroke="#E2E7F0" stroke-width="1.5"/>
<path d="M651.422 235.127H622.079V264.434H651.422V235.127Z" stroke="#E2E7F0" stroke-width="1.5"/>
<path d="M680.765 235.127H651.422V264.434H680.765V235.127Z" stroke="#E2E7F0" stroke-width="1.5"/>
<path d="M710.109 235.127H680.765V264.434H710.109V235.127Z" stroke="#E2E7F0" stroke-width="1.5"/>
<path d="M739.452 235.127H710.109V264.434H739.452V235.127Z" stroke="#E2E7F0" stroke-width="1.5"/>
<path d="M768.795 235.127H739.452V264.434H768.795V235.127Z" stroke="#E2E7F0" stroke-width="1.5"/>
<path d="M798.138 235.127H768.795V264.434H798.138V235.127Z" stroke="#E2E7F0" stroke-width="1.5"/>
<path d="M827.482 235.127H798.139V264.434H827.482V235.127Z" stroke="#E2E7F0" stroke-width="1.5"/>
<path d="M856.825 235.127H827.482V264.434H856.825V235.127Z" stroke="#E2E7F0" stroke-width="1.5"/>
<path d="M886.168 235.127H856.825V264.434H886.168V235.127Z" stroke="#E2E7F0" stroke-width="1.5"/>
<path d="M915.512 235.127H886.168V264.434H915.512V235.127Z" stroke="#E2E7F0" stroke-width="1.5"/>
<path d="M944.855 235.127H915.512V264.434H944.855V235.127Z" stroke="#E2E7F0" stroke-width="1.5"/>
<path d="M974.199 235.127H944.855V264.434H974.199V235.127Z" stroke="#E2E7F0" stroke-width="1.5"/>
<path d="M1003.54 235.127H974.198V264.434H1003.54V235.127Z" stroke="#E2E7F0" stroke-width="1.5"/>
<path d="M1032.89 235.127H1003.54V264.434H1032.89V235.127Z" stroke="#E2E7F0" stroke-width="1.5"/>
<path d="M1062.23 235.127H1032.89V264.434H1062.23V235.127Z" stroke="#E2E7F0" stroke-width="1.5"/>
<path d="M1091.57 235.127H1062.23V264.434H1091.57V235.127Z" stroke="#E2E7F0" stroke-width="1.5"/>
<path d="M5.86866 264.434H-23.4747V293.74H5.86866V264.434Z" stroke="#E2E7F0" stroke-width="1.5"/>
<path d="M35.212 264.434H5.86866V293.74H35.212V264.434Z" stroke="#E2E7F0" stroke-width="1.5"/>
<path d="M64.5553 264.434H35.212V293.74H64.5553V264.434Z" stroke="#E2E7F0" stroke-width="1.5"/>
<path d="M93.8986 264.434H64.5553V293.74H93.8986V264.434Z" fill="#E2E7F0" fill-opacity="0.3" stroke="#E2E7F0" stroke-width="1.5"/>
<path d="M123.242 264.434H93.8986V293.74H123.242V264.434Z" stroke="#E2E7F0" stroke-width="1.5"/>
<path d="M152.585 264.434H123.242V293.74H152.585V264.434Z" stroke="#E2E7F0" stroke-width="1.5"/>
<path d="M181.929 264.434H152.585V293.74H181.929V264.434Z" stroke="#E2E7F0" stroke-width="1.5"/>
<path d="M211.272 264.434H181.929V293.74H211.272V264.434Z" stroke="#E2E7F0" stroke-width="1.5"/>
<path d="M240.615 264.434H211.272V293.74H240.615V264.434Z" stroke="#E2E7F0" stroke-width="1.5"/>
<path d="M269.959 264.434H240.615V293.74H269.959V264.434Z" stroke="#E2E7F0" stroke-width="1.5"/>
<path d="M299.302 264.434H269.959V293.74H299.302V264.434Z" stroke="#E2E7F0" stroke-width="1.5"/>
<path d="M328.645 264.434H299.302V293.74H328.645V264.434Z" stroke="#E2E7F0" stroke-width="1.5"/>
<path d="M357.989 264.434H328.645V293.74H357.989V264.434Z" stroke="#E2E7F0" stroke-width="1.5"/>
<path d="M387.332 264.434H357.989V293.74H387.332V264.434Z" stroke="#E2E7F0" stroke-width="1.5"/>
<path d="M416.675 264.434H387.332V293.74H416.675V264.434Z" stroke="#E2E7F0" stroke-width="1.5"/>
<path d="M446.019 264.434H416.675V293.74H446.019V264.434Z" stroke="#E2E7F0" stroke-width="1.5"/>
<path d="M475.362 264.434H446.019V293.74H475.362V264.434Z" stroke="#E2E7F0" stroke-width="1.5"/>
<path d="M504.705 264.434H475.362V293.74H504.705V264.434Z" stroke="#E2E7F0" stroke-width="1.5"/>
<path d="M534.049 264.434H504.705V293.74H534.049V264.434Z" stroke="#E2E7F0" stroke-width="1.5"/>
<path d="M563.392 264.434H534.049V293.74H563.392V264.434Z" stroke="#E2E7F0" stroke-width="1.5"/>
<path d="M592.735 264.434H563.392V293.74H592.735V264.434Z" stroke="#E2E7F0" stroke-width="1.5"/>
<path d="M622.078 264.434H592.735V293.74H622.078V264.434Z" stroke="#E2E7F0" stroke-width="1.5"/>
<path d="M651.422 264.434H622.079V293.74H651.422V264.434Z" stroke="#E2E7F0" stroke-width="1.5"/>
<path d="M680.765 264.434H651.422V293.74H680.765V264.434Z" stroke="#E2E7F0" stroke-width="1.5"/>
<path d="M710.109 264.434H680.765V293.74H710.109V264.434Z" stroke="#E2E7F0" stroke-width="1.5"/>
<path d="M739.452 264.434H710.109V293.74H739.452V264.434Z" stroke="#E2E7F0" stroke-width="1.5"/>
<path d="M768.795 264.434H739.452V293.74H768.795V264.434Z" stroke="#E2E7F0" stroke-width="1.5"/>
<path d="M798.138 264.434H768.795V293.74H798.138V264.434Z" stroke="#E2E7F0" stroke-width="1.5"/>
<path d="M827.482 264.434H798.139V293.74H827.482V264.434Z" stroke="#E2E7F0" stroke-width="1.5"/>
<path d="M856.825 264.434H827.482V293.74H856.825V264.434Z" stroke="#E2E7F0" stroke-width="1.5"/>
<path d="M886.168 264.434H856.825V293.74H886.168V264.434Z" stroke="#E2E7F0" stroke-width="1.5"/>
<path d="M915.512 264.434H886.168V293.74H915.512V264.434Z" stroke="#E2E7F0" stroke-width="1.5"/>
<path d="M944.855 264.434H915.512V293.74H944.855V264.434Z" stroke="#E2E7F0" stroke-width="1.5"/>
<path d="M974.199 264.434H944.855V293.74H974.199V264.434Z" stroke="#E2E7F0" stroke-width="1.5"/>
<path d="M1003.54 264.434H974.198V293.74H1003.54V264.434Z" stroke="#E2E7F0" stroke-width="1.5"/>
<path d="M1032.89 264.434H1003.54V293.74H1032.89V264.434Z" stroke="#E2E7F0" stroke-width="1.5"/>
<path d="M1062.23 264.434H1032.89V293.74H1062.23V264.434Z" fill="#E2E7F0" fill-opacity="0.3" stroke="#E2E7F0" stroke-width="1.5"/>
<path d="M1091.57 264.434H1062.23V293.74H1091.57V264.434Z" stroke="#E2E7F0" stroke-width="1.5"/>
<path d="M5.86866 293.74H-23.4747V323.046H5.86866V293.74Z" stroke="#E2E7F0" stroke-width="1.5"/>
<path d="M35.212 293.74H5.86866V323.046H35.212V293.74Z" stroke="#E2E7F0" stroke-width="1.5"/>
<path d="M64.5553 293.74H35.212V323.046H64.5553V293.74Z" stroke="#E2E7F0" stroke-width="1.5"/>
<path d="M93.8986 293.74H64.5553V323.046H93.8986V293.74Z" stroke="#E2E7F0" stroke-width="1.5"/>
<path d="M123.242 293.74H93.8986V323.046H123.242V293.74Z" stroke="#E2E7F0" stroke-width="1.5"/>
<path d="M152.585 293.74H123.242V323.046H152.585V293.74Z" stroke="#E2E7F0" stroke-width="1.5"/>
<path d="M181.929 293.74H152.585V323.046H181.929V293.74Z" stroke="#E2E7F0" stroke-width="1.5"/>
<path d="M211.272 293.74H181.929V323.046H211.272V293.74Z" fill="#E2E7F0" fill-opacity="0.3" stroke="#E2E7F0" stroke-width="1.5"/>
<path d="M240.615 293.74H211.272V323.046H240.615V293.74Z" stroke="#E2E7F0" stroke-width="1.5"/>
<path d="M269.959 293.74H240.615V323.046H269.959V293.74Z" stroke="#E2E7F0" stroke-width="1.5"/>
<path d="M299.302 293.74H269.959V323.046H299.302V293.74Z" stroke="#E2E7F0" stroke-width="1.5"/>
<path d="M328.645 293.74H299.302V323.046H328.645V293.74Z" stroke="#E2E7F0" stroke-width="1.5"/>
<path d="M357.989 293.74H328.645V323.046H357.989V293.74Z" stroke="#E2E7F0" stroke-width="1.5"/>
<path d="M387.332 293.74H357.989V323.046H387.332V293.74Z" stroke="#E2E7F0" stroke-width="1.5"/>
<path d="M416.675 293.74H387.332V323.046H416.675V293.74Z" fill="#E2E7F0" fill-opacity="0.3" stroke="#E2E7F0" stroke-width="1.5"/>
<path d="M446.019 293.74H416.675V323.046H446.019V293.74Z" stroke="#E2E7F0" stroke-width="1.5"/>
<path d="M475.362 293.74H446.019V323.046H475.362V293.74Z" stroke="#E2E7F0" stroke-width="1.5"/>
<path d="M504.705 293.74H475.362V323.046H504.705V293.74Z" stroke="#E2E7F0" stroke-width="1.5"/>
<path d="M534.049 293.74H504.705V323.046H534.049V293.74Z" stroke="#E2E7F0" stroke-width="1.5"/>
<path d="M563.392 293.74H534.049V323.046H563.392V293.74Z" stroke="#E2E7F0" stroke-width="1.5"/>
<path d="M592.735 293.74H563.392V323.046H592.735V293.74Z" stroke="#E2E7F0" stroke-width="1.5"/>
<path d="M622.078 293.74H592.735V323.046H622.078V293.74Z" stroke="#E2E7F0" stroke-width="1.5"/>
<path d="M651.422 293.74H622.079V323.046H651.422V293.74Z" stroke="#E2E7F0" stroke-width="1.5"/>
<path d="M680.765 293.74H651.422V323.046H680.765V293.74Z" stroke="#E2E7F0" stroke-width="1.5"/>
<path d="M710.109 293.74H680.765V323.046H710.109V293.74Z" stroke="#E2E7F0" stroke-width="1.5"/>
<path d="M739.452 293.74H710.109V323.046H739.452V293.74Z" stroke="#E2E7F0" stroke-width="1.5"/>
<path d="M768.795 293.74H739.452V323.046H768.795V293.74Z" stroke="#E2E7F0" stroke-width="1.5"/>
<path d="M798.138 293.74H768.795V323.046H798.138V293.74Z" stroke="#E2E7F0" stroke-width="1.5"/>
<path d="M827.482 293.74H798.139V323.046H827.482V293.74Z" stroke="#E2E7F0" stroke-width="1.5"/>
<path d="M856.825 293.74H827.482V323.046H856.825V293.74Z" stroke="#E2E7F0" stroke-width="1.5"/>
<path d="M886.168 293.74H856.825V323.046H886.168V293.74Z" stroke="#E2E7F0" stroke-width="1.5"/>
<path d="M915.512 293.74H886.168V323.046H915.512V293.74Z" stroke="#E2E7F0" stroke-width="1.5"/>
<path d="M944.855 293.74H915.512V323.046H944.855V293.74Z" stroke="#E2E7F0" stroke-width="1.5"/>
<path d="M974.199 293.74H944.855V323.046H974.199V293.74Z" stroke="#E2E7F0" stroke-width="1.5"/>
<path d="M1003.54 293.74H974.198V323.046H1003.54V293.74Z" stroke="#E2E7F0" stroke-width="1.5"/>
<path d="M1032.89 293.74H1003.54V323.046H1032.89V293.74Z" stroke="#E2E7F0" stroke-width="1.5"/>
<path d="M1062.23 293.74H1032.89V323.046H1062.23V293.74Z" stroke="#E2E7F0" stroke-width="1.5"/>
<path d="M1091.57 293.74H1062.23V323.046H1091.57V293.74Z" stroke="#E2E7F0" stroke-width="1.5"/>
<path d="M5.86866 323.046H-23.4747V352.353H5.86866V323.046Z" stroke="#E2E7F0" stroke-width="1.5"/>
<path d="M35.212 323.046H5.86866V352.353H35.212V323.046Z" stroke="#E2E7F0" stroke-width="1.5"/>
<path d="M64.5553 323.046H35.212V352.353H64.5553V323.046Z" stroke="#E2E7F0" stroke-width="1.5"/>
<path d="M93.8986 323.046H64.5553V352.353H93.8986V323.046Z" stroke="#E2E7F0" stroke-width="1.5"/>
<path d="M123.242 323.046H93.8986V352.353H123.242V323.046Z" stroke="#E2E7F0" stroke-width="1.5"/>
<path d="M152.585 323.046H123.242V352.353H152.585V323.046Z" stroke="#E2E7F0" stroke-width="1.5"/>
<path d="M181.929 323.046H152.585V352.353H181.929V323.046Z" stroke="#E2E7F0" stroke-width="1.5"/>
<path d="M211.272 323.046H181.929V352.353H211.272V323.046Z" stroke="#E2E7F0" stroke-width="1.5"/>
<path d="M240.615 323.046H211.272V352.353H240.615V323.046Z" stroke="#E2E7F0" stroke-width="1.5"/>
<path d="M269.959 323.046H240.615V352.353H269.959V323.046Z" stroke="#E2E7F0" stroke-width="1.5"/>
<path d="M299.302 323.046H269.959V352.353H299.302V323.046Z" stroke="#E2E7F0" stroke-width="1.5"/>
<path d="M328.645 323.046H299.302V352.353H328.645V323.046Z" stroke="#E2E7F0" stroke-width="1.5"/>
<path d="M357.989 323.046H328.645V352.353H357.989V323.046Z" stroke="#E2E7F0" stroke-width="1.5"/>
<path d="M387.332 323.046H357.989V352.353H387.332V323.046Z" stroke="#E2E7F0" stroke-width="1.5"/>
<path d="M416.675 323.046H387.332V352.353H416.675V323.046Z" stroke="#E2E7F0" stroke-width="1.5"/>
<path d="M446.019 323.046H416.675V352.353H446.019V323.046Z" stroke="#E2E7F0" stroke-width="1.5"/>
<path d="M475.362 323.046H446.019V352.353H475.362V323.046Z" stroke="#E2E7F0" stroke-width="1.5"/>
<path d="M504.705 323.046H475.362V352.353H504.705V323.046Z" stroke="#E2E7F0" stroke-width="1.5"/>
<path d="M534.049 323.046H504.705V352.353H534.049V323.046Z" stroke="#E2E7F0" stroke-width="1.5"/>
<path d="M563.392 323.046H534.049V352.353H563.392V323.046Z" stroke="#E2E7F0" stroke-width="1.5"/>
<path d="M592.735 323.046H563.392V352.353H592.735V323.046Z" stroke="#E2E7F0" stroke-width="1.5"/>
<path d="M622.078 323.046H592.735V352.353H622.078V323.046Z" stroke="#E2E7F0" stroke-width="1.5"/>
<path d="M651.422 323.046H622.079V352.353H651.422V323.046Z" stroke="#E2E7F0" stroke-width="1.5"/>
<path d="M680.765 323.046H651.422V352.353H680.765V323.046Z" stroke="#E2E7F0" stroke-width="1.5"/>
<path d="M710.109 323.046H680.765V352.353H710.109V323.046Z" stroke="#E2E7F0" stroke-width="1.5"/>
<path d="M739.452 323.046H710.109V352.353H739.452V323.046Z" stroke="#E2E7F0" stroke-width="1.5"/>
<path d="M768.795 323.046H739.452V352.353H768.795V323.046Z" stroke="#E2E7F0" stroke-width="1.5"/>
<path d="M798.138 323.046H768.795V352.353H798.138V323.046Z" fill="#E2E7F0" fill-opacity="0.3" stroke="#E2E7F0" stroke-width="1.5"/>
<path d="M827.482 323.046H798.139V352.353H827.482V323.046Z" stroke="#E2E7F0" stroke-width="1.5"/>
<path d="M856.825 323.046H827.482V352.353H856.825V323.046Z" stroke="#E2E7F0" stroke-width="1.5"/>
<path d="M886.168 323.046H856.825V352.353H886.168V323.046Z" stroke="#E2E7F0" stroke-width="1.5"/>
<path d="M915.512 323.046H886.168V352.353H915.512V323.046Z" stroke="#E2E7F0" stroke-width="1.5"/>
<path d="M944.855 323.046H915.512V352.353H944.855V323.046Z" stroke="#E2E7F0" stroke-width="1.5"/>
<path d="M974.199 323.046H944.855V352.353H974.199V323.046Z" stroke="#E2E7F0" stroke-width="1.5"/>
<path d="M1003.54 323.046H974.198V352.353H1003.54V323.046Z" fill="#E2E7F0" fill-opacity="0.3" stroke="#E2E7F0" stroke-width="1.5"/>
<path d="M1032.89 323.046H1003.54V352.353H1032.89V323.046Z" stroke="#E2E7F0" stroke-width="1.5"/>
<path d="M1062.23 323.046H1032.89V352.353H1062.23V323.046Z" stroke="#E2E7F0" stroke-width="1.5"/>
<path d="M1091.57 323.046H1062.23V352.353H1091.57V323.046Z" stroke="#E2E7F0" stroke-width="1.5"/>
<path d="M5.86866 352.353H-23.4747V381.659H5.86866V352.353Z" stroke="#E2E7F0" stroke-width="1.5"/>
<path d="M35.212 352.353H5.86866V381.659H35.212V352.353Z" stroke="#E2E7F0" stroke-width="1.5"/>
<path d="M64.5553 352.353H35.212V381.659H64.5553V352.353Z" fill="#E2E7F0" fill-opacity="0.3" stroke="#E2E7F0" stroke-width="1.5"/>
<path d="M93.8986 352.353H64.5553V381.659H93.8986V352.353Z" stroke="#E2E7F0" stroke-width="1.5"/>
<path d="M123.242 352.353H93.8986V381.659H123.242V352.353Z" stroke="#E2E7F0" stroke-width="1.5"/>
<path d="M152.585 352.353H123.242V381.659H152.585V352.353Z" stroke="#E2E7F0" stroke-width="1.5"/>
<path d="M181.929 352.353H152.585V381.659H181.929V352.353Z" stroke="#E2E7F0" stroke-width="1.5"/>
<path d="M211.272 352.353H181.929V381.659H211.272V352.353Z" stroke="#E2E7F0" stroke-width="1.5"/>
<path d="M240.615 352.353H211.272V381.659H240.615V352.353Z" stroke="#E2E7F0" stroke-width="1.5"/>
<path d="M269.959 352.353H240.615V381.659H269.959V352.353Z" stroke="#E2E7F0" stroke-width="1.5"/>
<path d="M299.302 352.353H269.959V381.659H299.302V352.353Z" stroke="#E2E7F0" stroke-width="1.5"/>
<path d="M328.645 352.353H299.302V381.659H328.645V352.353Z" stroke="#E2E7F0" stroke-width="1.5"/>
<path d="M357.989 352.353H328.645V381.659H357.989V352.353Z" fill="#E2E7F0" fill-opacity="0.3" stroke="#E2E7F0" stroke-width="1.5"/>
<path d="M387.332 352.353H357.989V381.659H387.332V352.353Z" stroke="#E2E7F0" stroke-width="1.5"/>
<path d="M416.675 352.353H387.332V381.659H416.675V352.353Z" stroke="#E2E7F0" stroke-width="1.5"/>
<path d="M446.019 352.353H416.675V381.659H446.019V352.353Z" stroke="#E2E7F0" stroke-width="1.5"/>
<path d="M475.362 352.353H446.019V381.659H475.362V352.353Z" stroke="#E2E7F0" stroke-width="1.5"/>
<path d="M504.705 352.353H475.362V381.659H504.705V352.353Z" stroke="#E2E7F0" stroke-width="1.5"/>
<path d="M534.049 352.353H504.705V381.659H534.049V352.353Z" stroke="#E2E7F0" stroke-width="1.5"/>
<path d="M563.392 352.353H534.049V381.659H563.392V352.353Z" stroke="#E2E7F0" stroke-width="1.5"/>
<path d="M592.735 352.353H563.392V381.659H592.735V352.353Z" stroke="#E2E7F0" stroke-width="1.5"/>
<path d="M622.078 352.353H592.735V381.659H622.078V352.353Z" stroke="#E2E7F0" stroke-width="1.5"/>
<path d="M651.422 352.353H622.079V381.659H651.422V352.353Z" stroke="#E2E7F0" stroke-width="1.5"/>
<path d="M680.765 352.353H651.422V381.659H680.765V352.353Z" stroke="#E2E7F0" stroke-width="1.5"/>
<path d="M710.109 352.353H680.765V381.659H710.109V352.353Z" stroke="#E2E7F0" stroke-width="1.5"/>
<path d="M739.452 352.353H710.109V381.659H739.452V352.353Z" fill="#E2E7F0" fill-opacity="0.3" stroke="#E2E7F0" stroke-width="1.5"/>
<path d="M768.795 352.353H739.452V381.659H768.795V352.353Z" stroke="#E2E7F0" stroke-width="1.5"/>
<path d="M798.138 352.353H768.795V381.659H798.138V352.353Z" stroke="#E2E7F0" stroke-width="1.5"/>
<path d="M827.482 352.353H798.139V381.659H827.482V352.353Z" stroke="#E2E7F0" stroke-width="1.5"/>
<path d="M856.825 352.353H827.482V381.659H856.825V352.353Z" stroke="#E2E7F0" stroke-width="1.5"/>
<path d="M886.168 352.353H856.825V381.659H886.168V352.353Z" stroke="#E2E7F0" stroke-width="1.5"/>
<path d="M915.512 352.353H886.168V381.659H915.512V352.353Z" stroke="#E2E7F0" stroke-width="1.5"/>
<path d="M944.855 352.353H915.512V381.659H944.855V352.353Z" stroke="#E2E7F0" stroke-width="1.5"/>
<path d="M974.199 352.353H944.855V381.659H974.199V352.353Z" stroke="#E2E7F0" stroke-width="1.5"/>
<path d="M1003.54 352.353H974.198V381.659H1003.54V352.353Z" stroke="#E2E7F0" stroke-width="1.5"/>
<path d="M1032.89 352.353H1003.54V381.659H1032.89V352.353Z" stroke="#E2E7F0" stroke-width="1.5"/>
<path d="M1062.23 352.353H1032.89V381.659H1062.23V352.353Z" stroke="#E2E7F0" stroke-width="1.5"/>
<path d="M1091.57 352.353H1062.23V381.659H1091.57V352.353Z" stroke="#E2E7F0" stroke-width="1.5"/>
<path d="M5.86866 381.659H-23.4747V410.965H5.86866V381.659Z" stroke="#E2E7F0" stroke-width="1.5"/>
<path d="M35.212 381.659H5.86866V410.965H35.212V381.659Z" stroke="#E2E7F0" stroke-width="1.5"/>
<path d="M64.5553 381.659H35.212V410.965H64.5553V381.659Z" stroke="#E2E7F0" stroke-width="1.5"/>
<path d="M93.8986 381.659H64.5553V410.965H93.8986V381.659Z" stroke="#E2E7F0" stroke-width="1.5"/>
<path d="M123.242 381.659H93.8986V410.965H123.242V381.659Z" stroke="#E2E7F0" stroke-width="1.5"/>
<path d="M152.585 381.659H123.242V410.965H152.585V381.659Z" fill="#E2E7F0" fill-opacity="0.3" stroke="#E2E7F0" stroke-width="1.5"/>
<path d="M181.929 381.659H152.585V410.965H181.929V381.659Z" stroke="#E2E7F0" stroke-width="1.5"/>
<path d="M211.272 381.659H181.929V410.965H211.272V381.659Z" stroke="#E2E7F0" stroke-width="1.5"/>
<path d="M240.615 381.659H211.272V410.965H240.615V381.659Z" stroke="#E2E7F0" stroke-width="1.5"/>
<path d="M269.959 381.659H240.615V410.965H269.959V381.659Z" stroke="#E2E7F0" stroke-width="1.5"/>
<path d="M299.302 381.659H269.959V410.965H299.302V381.659Z" stroke="#E2E7F0" stroke-width="1.5"/>
<path d="M328.645 381.659H299.302V410.965H328.645V381.659Z" stroke="#E2E7F0" stroke-width="1.5"/>
<path d="M357.989 381.659H328.645V410.965H357.989V381.659Z" stroke="#E2E7F0" stroke-width="1.5"/>
<path d="M387.332 381.659H357.989V410.965H387.332V381.659Z" stroke="#E2E7F0" stroke-width="1.5"/>
<path d="M416.675 381.659H387.332V410.965H416.675V381.659Z" stroke="#E2E7F0" stroke-width="1.5"/>
<path d="M446.019 381.659H416.675V410.965H446.019V381.659Z" stroke="#E2E7F0" stroke-width="1.5"/>
<path d="M475.362 381.659H446.019V410.965H475.362V381.659Z" stroke="#E2E7F0" stroke-width="1.5"/>
<path d="M504.705 381.659H475.362V410.965H504.705V381.659Z" stroke="#E2E7F0" stroke-width="1.5"/>
<path d="M534.049 381.659H504.705V410.965H534.049V381.659Z" stroke="#E2E7F0" stroke-width="1.5"/>
<path d="M563.392 381.659H534.049V410.965H563.392V381.659Z" stroke="#E2E7F0" stroke-width="1.5"/>
<path d="M592.735 381.659H563.392V410.965H592.735V381.659Z" stroke="#E2E7F0" stroke-width="1.5"/>
<path d="M622.078 381.659H592.735V410.965H622.078V381.659Z" stroke="#E2E7F0" stroke-width="1.5"/>
<path d="M651.422 381.659H622.079V410.965H651.422V381.659Z" stroke="#E2E7F0" stroke-width="1.5"/>
<path d="M680.765 381.659H651.422V410.965H680.765V381.659Z" stroke="#E2E7F0" stroke-width="1.5"/>
<path d="M710.109 381.659H680.765V410.965H710.109V381.659Z" stroke="#E2E7F0" stroke-width="1.5"/>
<path d="M739.452 381.659H710.109V410.965H739.452V381.659Z" stroke="#E2E7F0" stroke-width="1.5"/>
<path d="M768.795 381.659H739.452V410.965H768.795V381.659Z" stroke="#E2E7F0" stroke-width="1.5"/>
<path d="M798.138 381.659H768.795V410.965H798.138V381.659Z" stroke="#E2E7F0" stroke-width="1.5"/>
<path d="M827.482 381.659H798.139V410.965H827.482V381.659Z" stroke="#E2E7F0" stroke-width="1.5"/>
<path d="M856.825 381.659H827.482V410.965H856.825V381.659Z" stroke="#E2E7F0" stroke-width="1.5"/>
<path d="M886.168 381.659H856.825V410.965H886.168V381.659Z" stroke="#E2E7F0" stroke-width="1.5"/>
<path d="M915.512 381.659H886.168V410.965H915.512V381.659Z" stroke="#E2E7F0" stroke-width="1.5"/>
<path d="M944.855 381.659H915.512V410.965H944.855V381.659Z" stroke="#E2E7F0" stroke-width="1.5"/>
<path d="M974.199 381.659H944.855V410.965H974.199V381.659Z" stroke="#E2E7F0" stroke-width="1.5"/>
<path d="M1003.54 381.659H974.198V410.965H1003.54V381.659Z" stroke="#E2E7F0" stroke-width="1.5"/>
<path d="M1032.89 381.659H1003.54V410.965H1032.89V381.659Z" stroke="#E2E7F0" stroke-width="1.5"/>
<path d="M1062.23 381.659H1032.89V410.965H1062.23V381.659Z" stroke="#E2E7F0" stroke-width="1.5"/>
<path d="M1091.57 381.659H1062.23V410.965H1091.57V381.659Z" stroke="#E2E7F0" stroke-width="1.5"/>
</g>
<path d="M1069 0H0V477.919H1069V0Z" fill="url(#paint1_radial_63_336)" fill-opacity="0.2"/>
</g>
</g>
<path d="M367.194 180.523H351.853L369.137 128.159H388.569L405.853 180.523H390.512L379.058 142.58H378.649L367.194 180.523ZM364.331 159.864H393.171V170.5H364.331V159.864ZM423.272 141.25L428.999 153.421L435.033 141.25H449.044L438.51 160.887L449.556 180.523H435.647L428.999 168.046L422.556 180.523H408.442L419.59 160.887L409.158 141.25H423.272ZM454.062 180.523V141.25H468.176V180.523H454.062ZM461.119 137.159C459.21 137.159 457.573 136.529 456.21 135.267C454.846 134.006 454.164 132.489 454.164 130.716C454.164 128.943 454.846 127.426 456.21 126.165C457.573 124.904 459.21 124.273 461.119 124.273C463.045 124.273 464.681 124.904 466.028 126.165C467.392 127.426 468.073 128.943 468.073 130.716C468.073 132.489 467.392 134.006 466.028 135.267C464.681 136.529 463.045 137.159 461.119 137.159ZM494.287 181.239C490.026 181.239 486.378 180.395 483.344 178.708C480.31 177.003 477.983 174.634 476.364 171.6C474.745 168.549 473.935 165.012 473.935 160.989C473.935 156.966 474.745 153.438 476.364 150.404C477.983 147.353 480.31 144.983 483.344 143.296C486.378 141.591 490.026 140.739 494.287 140.739C498.549 140.739 502.196 141.591 505.23 143.296C508.265 144.983 510.591 147.353 512.211 150.404C513.83 153.438 514.64 156.966 514.64 160.989C514.64 165.012 513.83 168.549 512.211 171.6C510.591 174.634 508.265 177.003 505.23 178.708C502.196 180.395 498.549 181.239 494.287 181.239ZM494.39 170.807C495.583 170.807 496.614 170.407 497.483 169.605C498.353 168.804 499.026 167.662 499.503 166.179C499.98 164.696 500.219 162.932 500.219 160.887C500.219 158.824 499.98 157.06 499.503 155.594C499.026 154.111 498.353 152.969 497.483 152.168C496.614 151.367 495.583 150.966 494.39 150.966C493.128 150.966 492.046 151.367 491.142 152.168C490.239 152.969 489.549 154.111 489.071 155.594C488.594 157.06 488.355 158.824 488.355 160.887C488.355 162.932 488.594 164.696 489.071 166.179C489.549 167.662 490.239 168.804 491.142 169.605C492.046 170.407 493.128 170.807 494.39 170.807ZM520.367 180.523V141.25H533.765V148.716H534.174C534.992 146.262 536.39 144.318 538.367 142.887C540.344 141.455 542.696 140.739 545.424 140.739C548.185 140.739 550.563 141.472 552.557 142.938C554.551 144.387 555.753 146.313 556.162 148.716H556.571C557.236 146.313 558.651 144.387 560.816 142.938C562.98 141.472 565.52 140.739 568.435 140.739C572.202 140.739 575.253 141.949 577.588 144.37C579.941 146.79 581.117 150.012 581.117 154.034V180.523H567.003V157.614C567.003 155.892 566.568 154.546 565.699 153.574C564.83 152.586 563.662 152.091 562.196 152.091C560.747 152.091 559.597 152.586 558.745 153.574C557.909 154.546 557.492 155.892 557.492 157.614V180.523H543.992V157.614C543.992 155.892 543.557 154.546 542.688 153.574C541.818 152.586 540.651 152.091 539.185 152.091C538.213 152.091 537.378 152.313 536.679 152.756C535.98 153.199 535.435 153.838 535.043 154.674C534.668 155.492 534.48 156.472 534.48 157.614V180.523H520.367ZM651.103 147.796H636.683C636.581 146.603 636.308 145.52 635.865 144.549C635.439 143.577 634.842 142.742 634.075 142.043C633.325 141.327 632.413 140.782 631.339 140.407C630.265 140.014 629.046 139.818 627.683 139.818C625.296 139.818 623.277 140.398 621.623 141.557C619.987 142.716 618.742 144.378 617.89 146.543C617.055 148.708 616.637 151.307 616.637 154.341C616.637 157.546 617.064 160.23 617.916 162.395C618.785 164.543 620.038 166.162 621.674 167.253C623.311 168.327 625.279 168.864 627.581 168.864C628.893 168.864 630.069 168.702 631.109 168.378C632.149 168.037 633.052 167.551 633.819 166.921C634.586 166.29 635.208 165.532 635.686 164.645C636.18 163.742 636.512 162.728 636.683 161.603L651.103 161.705C650.933 163.921 650.311 166.179 649.237 168.48C648.163 170.764 646.637 172.878 644.66 174.821C642.7 176.747 640.271 178.299 637.373 179.475C634.475 180.651 631.109 181.239 627.274 181.239C622.467 181.239 618.154 180.208 614.336 178.145C610.535 176.083 607.527 173.049 605.311 169.043C603.112 165.037 602.012 160.137 602.012 154.341C602.012 148.512 603.137 143.603 605.387 139.614C607.637 135.608 610.671 132.583 614.49 130.537C618.308 128.475 622.569 127.443 627.274 127.443C630.581 127.443 633.623 127.895 636.402 128.799C639.18 129.702 641.617 131.023 643.714 132.762C645.811 134.483 647.498 136.605 648.777 139.128C650.055 141.651 650.831 144.54 651.103 147.796ZM657.553 180.523V128.159H671.769V169.068H692.939V180.523H657.553ZM712.902 128.159V180.523H698.686V128.159H712.902Z" fill="url(#paint2_linear_63_336)"/>
<path d="M294.551 222.196V219.545H308.477V222.196H303.083V237H299.946V222.196H294.551ZM314.111 229.33V237H311.026V219.545H314.043V226.134H314.196C314.503 225.395 314.977 224.812 315.619 224.386C316.267 223.955 317.091 223.739 318.091 223.739C319 223.739 319.793 223.929 320.469 224.31C321.145 224.69 321.668 225.247 322.037 225.98C322.412 226.713 322.6 227.608 322.6 228.665V237H319.514V229.142C319.514 228.261 319.287 227.577 318.833 227.088C318.384 226.594 317.753 226.347 316.94 226.347C316.395 226.347 315.906 226.466 315.475 226.705C315.048 226.937 314.713 227.276 314.469 227.719C314.23 228.162 314.111 228.699 314.111 229.33ZM331.54 237.256C330.227 237.256 329.094 236.983 328.139 236.438C327.19 235.886 326.46 235.108 325.949 234.102C325.438 233.091 325.182 231.901 325.182 230.531C325.182 229.185 325.438 228.003 325.949 226.986C326.466 225.963 327.188 225.168 328.114 224.599C329.04 224.026 330.128 223.739 331.378 223.739C332.185 223.739 332.946 223.869 333.662 224.131C334.384 224.386 335.02 224.784 335.571 225.324C336.128 225.864 336.565 226.551 336.884 227.386C337.202 228.216 337.361 229.205 337.361 230.352V231.298H326.631V229.219H334.404C334.398 228.628 334.27 228.102 334.02 227.642C333.77 227.176 333.421 226.81 332.972 226.543C332.529 226.276 332.012 226.142 331.421 226.142C330.79 226.142 330.236 226.295 329.759 226.602C329.281 226.903 328.909 227.301 328.642 227.795C328.381 228.284 328.247 228.821 328.242 229.406V231.222C328.242 231.983 328.381 232.636 328.659 233.182C328.938 233.722 329.327 234.136 329.827 234.426C330.327 234.71 330.912 234.852 331.583 234.852C332.031 234.852 332.438 234.79 332.801 234.665C333.165 234.534 333.48 234.344 333.747 234.094C334.014 233.844 334.216 233.534 334.352 233.165L337.233 233.489C337.051 234.25 336.705 234.915 336.193 235.483C335.688 236.045 335.04 236.483 334.25 236.795C333.46 237.102 332.557 237.256 331.54 237.256ZM345.924 241.909V223.909H348.958V226.074H349.137C349.296 225.756 349.521 225.418 349.811 225.06C350.1 224.696 350.492 224.386 350.987 224.131C351.481 223.869 352.112 223.739 352.879 223.739C353.89 223.739 354.802 223.997 355.614 224.514C356.433 225.026 357.08 225.784 357.558 226.79C358.041 227.79 358.282 229.017 358.282 230.472C358.282 231.909 358.046 233.131 357.575 234.136C357.103 235.142 356.461 235.909 355.649 236.438C354.836 236.966 353.916 237.23 352.887 237.23C352.137 237.23 351.515 237.105 351.021 236.855C350.526 236.605 350.129 236.304 349.828 235.952C349.532 235.594 349.302 235.256 349.137 234.938H349.009V241.909H345.924ZM348.95 230.455C348.95 231.301 349.069 232.043 349.308 232.679C349.552 233.315 349.901 233.812 350.356 234.17C350.816 234.523 351.373 234.699 352.026 234.699C352.708 234.699 353.279 234.517 353.739 234.153C354.2 233.784 354.546 233.281 354.779 232.645C355.018 232.003 355.137 231.273 355.137 230.455C355.137 229.642 355.021 228.92 354.788 228.29C354.555 227.659 354.208 227.165 353.748 226.807C353.288 226.449 352.714 226.27 352.026 226.27C351.367 226.27 350.808 226.443 350.347 226.79C349.887 227.136 349.538 227.622 349.299 228.247C349.066 228.872 348.95 229.608 348.95 230.455ZM366.634 237.256C365.356 237.256 364.248 236.974 363.311 236.412C362.373 235.849 361.646 235.062 361.129 234.051C360.617 233.04 360.362 231.858 360.362 230.506C360.362 229.153 360.617 227.969 361.129 226.952C361.646 225.935 362.373 225.145 363.311 224.582C364.248 224.02 365.356 223.739 366.634 223.739C367.913 223.739 369.021 224.02 369.958 224.582C370.896 225.145 371.62 225.935 372.132 226.952C372.649 227.969 372.907 229.153 372.907 230.506C372.907 231.858 372.649 233.04 372.132 234.051C371.62 235.062 370.896 235.849 369.958 236.412C369.021 236.974 367.913 237.256 366.634 237.256ZM366.651 234.784C367.345 234.784 367.924 234.594 368.39 234.213C368.856 233.827 369.203 233.31 369.43 232.662C369.663 232.014 369.779 231.293 369.779 230.497C369.779 229.696 369.663 228.972 369.43 228.324C369.203 227.67 368.856 227.151 368.39 226.764C367.924 226.378 367.345 226.185 366.651 226.185C365.941 226.185 365.35 226.378 364.879 226.764C364.413 227.151 364.063 227.67 363.83 228.324C363.603 228.972 363.489 229.696 363.489 230.497C363.489 231.293 363.603 232.014 363.83 232.662C364.063 233.31 364.413 233.827 364.879 234.213C365.35 234.594 365.941 234.784 366.651 234.784ZM377.852 237L374.154 223.909H377.298L379.6 233.114H379.719L382.071 223.909H385.182L387.534 233.062H387.662L389.929 223.909H393.083L389.375 237H386.162L383.708 228.153H383.529L381.074 237H377.852ZM400.657 237.256C399.345 237.256 398.211 236.983 397.257 236.438C396.308 235.886 395.578 235.108 395.066 234.102C394.555 233.091 394.299 231.901 394.299 230.531C394.299 229.185 394.555 228.003 395.066 226.986C395.583 225.963 396.305 225.168 397.231 224.599C398.157 224.026 399.245 223.739 400.495 223.739C401.302 223.739 402.063 223.869 402.779 224.131C403.501 224.386 404.137 224.784 404.688 225.324C405.245 225.864 405.683 226.551 406.001 227.386C406.319 228.216 406.478 229.205 406.478 230.352V231.298H395.748V229.219H403.521C403.515 228.628 403.387 228.102 403.137 227.642C402.887 227.176 402.538 226.81 402.089 226.543C401.646 226.276 401.129 226.142 400.538 226.142C399.907 226.142 399.353 226.295 398.876 226.602C398.399 226.903 398.026 227.301 397.759 227.795C397.498 228.284 397.364 228.821 397.359 229.406V231.222C397.359 231.983 397.498 232.636 397.776 233.182C398.055 233.722 398.444 234.136 398.944 234.426C399.444 234.71 400.029 234.852 400.7 234.852C401.149 234.852 401.555 234.79 401.918 234.665C402.282 234.534 402.597 234.344 402.864 234.094C403.132 233.844 403.333 233.534 403.47 233.165L406.35 233.489C406.168 234.25 405.822 234.915 405.311 235.483C404.805 236.045 404.157 236.483 403.367 236.795C402.578 237.102 401.674 237.256 400.657 237.256ZM409.088 237V223.909H412.08V226.091H412.216C412.455 225.335 412.864 224.753 413.443 224.344C414.029 223.929 414.696 223.722 415.446 223.722C415.617 223.722 415.807 223.73 416.017 223.747C416.233 223.759 416.412 223.778 416.554 223.807V226.645C416.423 226.599 416.216 226.56 415.932 226.526C415.654 226.486 415.384 226.466 415.122 226.466C414.56 226.466 414.054 226.588 413.605 226.832C413.162 227.071 412.813 227.403 412.557 227.83C412.301 228.256 412.173 228.747 412.173 229.304V237H409.088ZM430.267 237.256C428.989 237.256 427.881 236.974 426.943 236.412C426.006 235.849 425.279 235.062 424.762 234.051C424.25 233.04 423.994 231.858 423.994 230.506C423.994 229.153 424.25 227.969 424.762 226.952C425.279 225.935 426.006 225.145 426.943 224.582C427.881 224.02 428.989 223.739 430.267 223.739C431.546 223.739 432.654 224.02 433.591 224.582C434.529 225.145 435.253 225.935 435.764 226.952C436.281 227.969 436.54 229.153 436.54 230.506C436.54 231.858 436.281 233.04 435.764 234.051C435.253 235.062 434.529 235.849 433.591 236.412C432.654 236.974 431.546 237.256 430.267 237.256ZM430.284 234.784C430.977 234.784 431.557 234.594 432.023 234.213C432.489 233.827 432.835 233.31 433.063 232.662C433.296 232.014 433.412 231.293 433.412 230.497C433.412 229.696 433.296 228.972 433.063 228.324C432.835 227.67 432.489 227.151 432.023 226.764C431.557 226.378 430.977 226.185 430.284 226.185C429.574 226.185 428.983 226.378 428.512 226.764C428.046 227.151 427.696 227.67 427.463 228.324C427.236 228.972 427.122 229.696 427.122 230.497C427.122 231.293 427.236 232.014 427.463 232.662C427.696 233.31 428.046 233.827 428.512 234.213C428.983 234.594 429.574 234.784 430.284 234.784ZM445.789 223.909V226.295H438.051V223.909H445.789ZM439.985 237V222.673C439.985 221.793 440.167 221.06 440.531 220.474C440.9 219.889 441.394 219.452 442.014 219.162C442.633 218.872 443.32 218.727 444.076 218.727C444.61 218.727 445.085 218.77 445.499 218.855C445.914 218.94 446.221 219.017 446.42 219.085L445.806 221.472C445.676 221.432 445.511 221.392 445.312 221.352C445.113 221.307 444.891 221.284 444.647 221.284C444.073 221.284 443.667 221.423 443.428 221.702C443.195 221.974 443.079 222.366 443.079 222.878V237H439.985ZM456.536 237H453.161L459.306 219.545H463.21L469.363 237H465.988L461.326 223.125H461.19L456.536 237ZM456.647 230.156H465.852V232.696H456.647V230.156ZM474.048 223.909L476.69 228.741L479.375 223.909H482.639L478.693 230.455L482.708 237H479.46L476.69 232.287L473.946 237H470.673L474.662 230.455L470.776 223.909H474.048ZM485.026 237V223.909H488.111V237H485.026ZM486.577 222.051C486.088 222.051 485.668 221.889 485.315 221.565C484.963 221.236 484.787 220.841 484.787 220.381C484.787 219.915 484.963 219.52 485.315 219.196C485.668 218.866 486.088 218.702 486.577 218.702C487.071 218.702 487.492 218.866 487.838 219.196C488.19 219.52 488.367 219.915 488.367 220.381C488.367 220.841 488.19 221.236 487.838 221.565C487.492 221.889 487.071 222.051 486.577 222.051ZM496.994 237.256C495.715 237.256 494.607 236.974 493.67 236.412C492.732 235.849 492.005 235.062 491.488 234.051C490.977 233.04 490.721 231.858 490.721 230.506C490.721 229.153 490.977 227.969 491.488 226.952C492.005 225.935 492.732 225.145 493.67 224.582C494.607 224.02 495.715 223.739 496.994 223.739C498.272 223.739 499.38 224.02 500.318 224.582C501.255 225.145 501.98 225.935 502.491 226.952C503.008 227.969 503.266 229.153 503.266 230.506C503.266 231.858 503.008 233.04 502.491 234.051C501.98 235.062 501.255 235.849 500.318 236.412C499.38 236.974 498.272 237.256 496.994 237.256ZM497.011 234.784C497.704 234.784 498.284 234.594 498.749 234.213C499.215 233.827 499.562 233.31 499.789 232.662C500.022 232.014 500.139 231.293 500.139 230.497C500.139 229.696 500.022 228.972 499.789 228.324C499.562 227.67 499.215 227.151 498.749 226.764C498.284 226.378 497.704 226.185 497.011 226.185C496.301 226.185 495.71 226.378 495.238 226.764C494.772 227.151 494.423 227.67 494.19 228.324C493.963 228.972 493.849 229.696 493.849 230.497C493.849 231.293 493.963 232.014 494.19 232.662C494.423 233.31 494.772 233.827 495.238 234.213C495.71 234.594 496.301 234.784 497.011 234.784ZM505.885 237V223.909H508.834V226.134H508.987C509.26 225.384 509.712 224.798 510.342 224.378C510.973 223.952 511.726 223.739 512.601 223.739C513.487 223.739 514.235 223.955 514.842 224.386C515.456 224.812 515.888 225.395 516.138 226.134H516.274C516.564 225.406 517.053 224.827 517.74 224.395C518.433 223.957 519.254 223.739 520.203 223.739C521.408 223.739 522.391 224.119 523.152 224.881C523.914 225.642 524.294 226.753 524.294 228.213V237H521.2V228.69C521.2 227.878 520.985 227.284 520.553 226.909C520.121 226.528 519.592 226.338 518.967 226.338C518.223 226.338 517.641 226.571 517.22 227.037C516.806 227.497 516.598 228.097 516.598 228.835V237H513.573V228.562C513.573 227.886 513.368 227.347 512.959 226.943C512.556 226.54 512.027 226.338 511.374 226.338C510.931 226.338 510.527 226.452 510.164 226.679C509.8 226.901 509.51 227.216 509.294 227.625C509.078 228.028 508.97 228.5 508.97 229.04V237H505.885ZM539.088 237.256C537.809 237.256 536.701 236.974 535.764 236.412C534.826 235.849 534.099 235.062 533.582 234.051C533.07 233.04 532.815 231.858 532.815 230.506C532.815 229.153 533.07 227.969 533.582 226.952C534.099 225.935 534.826 225.145 535.764 224.582C536.701 224.02 537.809 223.739 539.088 223.739C540.366 223.739 541.474 224.02 542.411 224.582C543.349 225.145 544.073 225.935 544.585 226.952C545.102 227.969 545.36 229.153 545.36 230.506C545.36 231.858 545.102 233.04 544.585 234.051C544.073 235.062 543.349 235.849 542.411 236.412C541.474 236.974 540.366 237.256 539.088 237.256ZM539.105 234.784C539.798 234.784 540.377 234.594 540.843 234.213C541.309 233.827 541.656 233.31 541.883 232.662C542.116 232.014 542.232 231.293 542.232 230.497C542.232 229.696 542.116 228.972 541.883 228.324C541.656 227.67 541.309 227.151 540.843 226.764C540.377 226.378 539.798 226.185 539.105 226.185C538.394 226.185 537.803 226.378 537.332 226.764C536.866 227.151 536.516 227.67 536.284 228.324C536.056 228.972 535.943 229.696 535.943 230.497C535.943 231.293 536.056 232.014 536.284 232.662C536.516 233.31 536.866 233.827 537.332 234.213C537.803 234.594 538.394 234.784 539.105 234.784ZM551.064 229.33V237H547.979V223.909H550.928V226.134H551.081C551.382 225.401 551.862 224.818 552.521 224.386C553.186 223.955 554.007 223.739 554.985 223.739C555.888 223.739 556.675 223.932 557.345 224.318C558.021 224.705 558.544 225.264 558.914 225.997C559.289 226.73 559.473 227.619 559.467 228.665V237H556.382V229.142C556.382 228.267 556.155 227.582 555.7 227.088C555.252 226.594 554.629 226.347 553.834 226.347C553.294 226.347 552.814 226.466 552.394 226.705C551.979 226.937 551.652 227.276 551.414 227.719C551.181 228.162 551.064 228.699 551.064 229.33ZM575.094 223.909V226.295H567.568V223.909H575.094ZM569.426 220.773H572.512V233.062C572.512 233.477 572.574 233.795 572.699 234.017C572.83 234.233 573 234.381 573.21 234.46C573.421 234.54 573.654 234.58 573.909 234.58C574.102 234.58 574.279 234.565 574.438 234.537C574.602 234.509 574.727 234.483 574.813 234.46L575.333 236.872C575.168 236.929 574.932 236.991 574.625 237.06C574.324 237.128 573.955 237.168 573.517 237.179C572.744 237.202 572.048 237.085 571.429 236.83C570.81 236.568 570.318 236.165 569.955 235.619C569.597 235.074 569.421 234.392 569.426 233.574V220.773ZM581.041 229.33V237H577.955V219.545H580.972V226.134H581.126C581.433 225.395 581.907 224.812 582.549 224.386C583.197 223.955 584.021 223.739 585.021 223.739C585.93 223.739 586.722 223.929 587.399 224.31C588.075 224.69 588.597 225.247 588.967 225.98C589.342 226.713 589.529 227.608 589.529 228.665V237H586.444V229.142C586.444 228.261 586.217 227.577 585.762 227.088C585.313 226.594 584.683 226.347 583.87 226.347C583.325 226.347 582.836 226.466 582.404 226.705C581.978 226.937 581.643 227.276 581.399 227.719C581.16 228.162 581.041 228.699 581.041 229.33ZM598.47 237.256C597.157 237.256 596.024 236.983 595.069 236.438C594.12 235.886 593.39 235.108 592.879 234.102C592.367 233.091 592.112 231.901 592.112 230.531C592.112 229.185 592.367 228.003 592.879 226.986C593.396 225.963 594.117 225.168 595.043 224.599C595.97 224.026 597.058 223.739 598.308 223.739C599.114 223.739 599.876 223.869 600.592 224.131C601.313 224.386 601.95 224.784 602.501 225.324C603.058 225.864 603.495 226.551 603.813 227.386C604.132 228.216 604.291 229.205 604.291 230.352V231.298H593.561V229.219H601.333C601.328 228.628 601.2 228.102 600.95 227.642C600.7 227.176 600.35 226.81 599.901 226.543C599.458 226.276 598.941 226.142 598.35 226.142C597.72 226.142 597.166 226.295 596.688 226.602C596.211 226.903 595.839 227.301 595.572 227.795C595.311 228.284 595.177 228.821 595.171 229.406V231.222C595.171 231.983 595.311 232.636 595.589 233.182C595.867 233.722 596.257 234.136 596.757 234.426C597.257 234.71 597.842 234.852 598.512 234.852C598.961 234.852 599.367 234.79 599.731 234.665C600.095 234.534 600.41 234.344 600.677 234.094C600.944 233.844 601.146 233.534 601.282 233.165L604.163 233.489C603.981 234.25 603.634 234.915 603.123 235.483C602.617 236.045 601.97 236.483 601.18 236.795C600.39 237.102 599.487 237.256 598.47 237.256ZM618.564 237.256C617.257 237.256 616.135 236.969 615.198 236.395C614.266 235.821 613.547 235.028 613.041 234.017C612.541 233 612.291 231.83 612.291 230.506C612.291 229.176 612.547 228.003 613.058 226.986C613.57 225.963 614.291 225.168 615.223 224.599C616.161 224.026 617.269 223.739 618.547 223.739C619.61 223.739 620.55 223.935 621.368 224.327C622.192 224.713 622.848 225.261 623.337 225.972C623.825 226.676 624.104 227.5 624.172 228.443H621.223C621.104 227.812 620.82 227.287 620.371 226.866C619.928 226.44 619.334 226.227 618.59 226.227C617.959 226.227 617.405 226.398 616.928 226.739C616.45 227.074 616.078 227.557 615.811 228.188C615.55 228.818 615.419 229.574 615.419 230.455C615.419 231.347 615.55 232.114 615.811 232.756C616.073 233.392 616.439 233.884 616.911 234.23C617.388 234.571 617.948 234.741 618.59 234.741C619.044 234.741 619.45 234.656 619.808 234.486C620.172 234.31 620.476 234.057 620.72 233.727C620.965 233.398 621.132 232.997 621.223 232.526H624.172C624.098 233.452 623.825 234.273 623.354 234.989C622.882 235.699 622.24 236.256 621.428 236.659C620.615 237.057 619.661 237.256 618.564 237.256ZM632.416 237.256C631.137 237.256 630.029 236.974 629.092 236.412C628.154 235.849 627.427 235.062 626.91 234.051C626.399 233.04 626.143 231.858 626.143 230.506C626.143 229.153 626.399 227.969 626.91 226.952C627.427 225.935 628.154 225.145 629.092 224.582C630.029 224.02 631.137 223.739 632.416 223.739C633.694 223.739 634.802 224.02 635.739 224.582C636.677 225.145 637.401 225.935 637.913 226.952C638.43 227.969 638.688 229.153 638.688 230.506C638.688 231.858 638.43 233.04 637.913 234.051C637.401 235.062 636.677 235.849 635.739 236.412C634.802 236.974 633.694 237.256 632.416 237.256ZM632.433 234.784C633.126 234.784 633.705 234.594 634.171 234.213C634.637 233.827 634.984 233.31 635.211 232.662C635.444 232.014 635.561 231.293 635.561 230.497C635.561 229.696 635.444 228.972 635.211 228.324C634.984 227.67 634.637 227.151 634.171 226.764C633.705 226.378 633.126 226.185 632.433 226.185C631.722 226.185 631.132 226.378 630.66 226.764C630.194 227.151 629.845 227.67 629.612 228.324C629.384 228.972 629.271 229.696 629.271 230.497C629.271 231.293 629.384 232.014 629.612 232.662C629.845 233.31 630.194 233.827 630.66 234.213C631.132 234.594 631.722 234.784 632.433 234.784ZM641.307 237V223.909H644.256V226.134H644.409C644.682 225.384 645.134 224.798 645.764 224.378C646.395 223.952 647.148 223.739 648.023 223.739C648.909 223.739 649.656 223.955 650.264 224.386C650.878 224.812 651.31 225.395 651.56 226.134H651.696C651.986 225.406 652.475 224.827 653.162 224.395C653.855 223.957 654.676 223.739 655.625 223.739C656.83 223.739 657.813 224.119 658.574 224.881C659.335 225.642 659.716 226.753 659.716 228.213V237H656.622V228.69C656.622 227.878 656.406 227.284 655.975 226.909C655.543 226.528 655.014 226.338 654.389 226.338C653.645 226.338 653.063 226.571 652.642 227.037C652.227 227.497 652.02 228.097 652.02 228.835V237H648.994V228.562C648.994 227.886 648.79 227.347 648.381 226.943C647.977 226.54 647.449 226.338 646.796 226.338C646.352 226.338 645.949 226.452 645.585 226.679C645.222 226.901 644.932 227.216 644.716 227.625C644.5 228.028 644.392 228.5 644.392 229.04V237H641.307ZM662.846 237V223.909H665.795V226.134H665.948C666.221 225.384 666.673 224.798 667.303 224.378C667.934 223.952 668.687 223.739 669.562 223.739C670.448 223.739 671.195 223.955 671.803 224.386C672.417 224.812 672.849 225.395 673.099 226.134H673.235C673.525 225.406 674.014 224.827 674.701 224.395C675.394 223.957 676.215 223.739 677.164 223.739C678.369 223.739 679.352 224.119 680.113 224.881C680.874 225.642 681.255 226.753 681.255 228.213V237H678.161V228.69C678.161 227.878 677.945 227.284 677.514 226.909C677.082 226.528 676.553 226.338 675.928 226.338C675.184 226.338 674.602 226.571 674.181 227.037C673.766 227.497 673.559 228.097 673.559 228.835V237H670.534V228.562C670.534 227.886 670.329 227.347 669.92 226.943C669.516 226.54 668.988 226.338 668.335 226.338C667.891 226.338 667.488 226.452 667.124 226.679C666.761 226.901 666.471 227.216 666.255 227.625C666.039 228.028 665.931 228.5 665.931 229.04V237H662.846ZM688.152 237.264C687.323 237.264 686.575 237.116 685.911 236.821C685.252 236.52 684.729 236.077 684.342 235.491C683.962 234.906 683.771 234.185 683.771 233.327C683.771 232.588 683.908 231.977 684.181 231.494C684.453 231.011 684.825 230.625 685.297 230.335C685.769 230.045 686.3 229.827 686.891 229.679C687.487 229.526 688.104 229.415 688.74 229.347C689.507 229.267 690.129 229.196 690.607 229.134C691.084 229.065 691.431 228.963 691.646 228.827C691.868 228.685 691.979 228.466 691.979 228.17V228.119C691.979 227.477 691.789 226.98 691.408 226.628C691.027 226.276 690.479 226.099 689.763 226.099C689.007 226.099 688.408 226.264 687.965 226.594C687.527 226.923 687.232 227.312 687.078 227.761L684.198 227.352C684.425 226.557 684.8 225.892 685.323 225.358C685.845 224.818 686.485 224.415 687.24 224.148C687.996 223.875 688.831 223.739 689.746 223.739C690.377 223.739 691.004 223.812 691.629 223.96C692.254 224.108 692.825 224.352 693.342 224.693C693.86 225.028 694.274 225.486 694.587 226.065C694.905 226.645 695.064 227.369 695.064 228.239V237H692.098V235.202H691.996C691.808 235.565 691.544 235.906 691.203 236.224C690.868 236.537 690.445 236.79 689.933 236.983C689.428 237.17 688.834 237.264 688.152 237.264ZM688.953 234.997C689.573 234.997 690.11 234.875 690.564 234.631C691.019 234.381 691.368 234.051 691.612 233.642C691.862 233.233 691.987 232.787 691.987 232.304V230.761C691.891 230.841 691.726 230.915 691.493 230.983C691.266 231.051 691.01 231.111 690.726 231.162C690.442 231.213 690.161 231.259 689.882 231.298C689.604 231.338 689.362 231.372 689.158 231.401C688.698 231.463 688.286 231.565 687.922 231.707C687.558 231.849 687.271 232.048 687.061 232.304C686.851 232.554 686.746 232.878 686.746 233.276C686.746 233.844 686.953 234.273 687.368 234.562C687.783 234.852 688.311 234.997 688.953 234.997ZM701.252 229.33V237H698.166V223.909H701.115V226.134H701.269C701.57 225.401 702.05 224.818 702.709 224.386C703.374 223.955 704.195 223.739 705.172 223.739C706.075 223.739 706.862 223.932 707.533 224.318C708.209 224.705 708.732 225.264 709.101 225.997C709.476 226.73 709.661 227.619 709.655 228.665V237H706.57V229.142C706.57 228.267 706.342 227.582 705.888 227.088C705.439 226.594 704.817 226.347 704.021 226.347C703.482 226.347 703.002 226.466 702.581 226.705C702.166 226.937 701.84 227.276 701.601 227.719C701.368 228.162 701.252 228.699 701.252 229.33ZM717.649 237.23C716.621 237.23 715.7 236.966 714.888 236.438C714.075 235.909 713.433 235.142 712.962 234.136C712.49 233.131 712.254 231.909 712.254 230.472C712.254 229.017 712.493 227.79 712.97 226.79C713.453 225.784 714.104 225.026 714.922 224.514C715.74 223.997 716.652 223.739 717.658 223.739C718.425 223.739 719.056 223.869 719.55 224.131C720.044 224.386 720.436 224.696 720.726 225.06C721.016 225.418 721.24 225.756 721.399 226.074H721.527V219.545H724.621V237H721.587V234.938H721.399C721.24 235.256 721.01 235.594 720.709 235.952C720.408 236.304 720.01 236.605 719.516 236.855C719.021 237.105 718.399 237.23 717.649 237.23ZM718.51 234.699C719.164 234.699 719.72 234.523 720.181 234.17C720.641 233.812 720.99 233.315 721.229 232.679C721.467 232.043 721.587 231.301 721.587 230.455C721.587 229.608 721.467 228.872 721.229 228.247C720.996 227.622 720.649 227.136 720.189 226.79C719.735 226.443 719.175 226.27 718.51 226.27C717.823 226.27 717.249 226.449 716.789 226.807C716.328 227.165 715.982 227.659 715.749 228.29C715.516 228.92 715.399 229.642 715.399 230.455C715.399 231.273 715.516 232.003 715.749 232.645C715.987 233.281 716.337 233.784 716.797 234.153C717.263 234.517 717.834 234.699 718.51 234.699ZM736.947 219.545V237H733.862V219.545H736.947ZM740.119 237V223.909H743.205V237H740.119ZM741.671 222.051C741.182 222.051 740.762 221.889 740.409 221.565C740.057 221.236 739.881 220.841 739.881 220.381C739.881 219.915 740.057 219.52 740.409 219.196C740.762 218.866 741.182 218.702 741.671 218.702C742.165 218.702 742.585 218.866 742.932 219.196C743.284 219.52 743.46 219.915 743.46 220.381C743.46 220.841 743.284 221.236 742.932 221.565C742.585 221.889 742.165 222.051 741.671 222.051ZM749.463 229.33V237H746.377V223.909H749.326V226.134H749.48C749.781 225.401 750.261 224.818 750.92 224.386C751.585 223.955 752.406 223.739 753.383 223.739C754.286 223.739 755.073 223.932 755.744 224.318C756.42 224.705 756.943 225.264 757.312 225.997C757.687 226.73 757.872 227.619 757.866 228.665V237H754.781V229.142C754.781 228.267 754.553 227.582 754.099 227.088C753.65 226.594 753.028 226.347 752.232 226.347C751.693 226.347 751.213 226.466 750.792 226.705C750.377 226.937 750.051 227.276 749.812 227.719C749.579 228.162 749.463 228.699 749.463 229.33ZM766.798 237.256C765.485 237.256 764.352 236.983 763.397 236.438C762.448 235.886 761.718 235.108 761.207 234.102C760.695 233.091 760.44 231.901 760.44 230.531C760.44 229.185 760.695 228.003 761.207 226.986C761.724 225.963 762.445 225.168 763.372 224.599C764.298 224.026 765.386 223.739 766.636 223.739C767.443 223.739 768.204 223.869 768.92 224.131C769.641 224.386 770.278 224.784 770.829 225.324C771.386 225.864 771.823 226.551 772.141 227.386C772.46 228.216 772.619 229.205 772.619 230.352V231.298H761.889V229.219H769.661C769.656 228.628 769.528 228.102 769.278 227.642C769.028 227.176 768.678 226.81 768.23 226.543C767.786 226.276 767.269 226.142 766.678 226.142C766.048 226.142 765.494 226.295 765.016 226.602C764.539 226.903 764.167 227.301 763.9 227.795C763.639 228.284 763.505 228.821 763.499 229.406V231.222C763.499 231.983 763.639 232.636 763.917 233.182C764.195 233.722 764.585 234.136 765.085 234.426C765.585 234.71 766.17 234.852 766.84 234.852C767.289 234.852 767.695 234.79 768.059 234.665C768.423 234.534 768.738 234.344 769.005 234.094C769.272 233.844 769.474 233.534 769.61 233.165L772.491 233.489C772.309 234.25 771.963 234.915 771.451 235.483C770.945 236.045 770.298 236.483 769.508 236.795C768.718 237.102 767.815 237.256 766.798 237.256Z" fill="#ABB3BF"/>
<path d="M88.5123 347.348L79.947 332.539C79.5543 331.859 78.5864 331.302 77.7963 331.302H72.4488C71.2059 331.302 70.6963 330.427 71.3163 329.358L74.2488 324.301C74.4815 323.9 74.481 323.406 74.2475 323.005C74.0139 322.604 73.5828 322.357 73.1163 322.357H65.6565C64.8663 322.357 63.8963 322.913 63.5008 323.592L49.0052 348.488C48.6098 349.167 48.6095 350.279 49.0047 350.958L52.7345 357.37C53.3559 358.439 54.3751 358.44 54.9992 357.373L57.9137 352.391C58.5378 351.324 59.557 351.326 60.1784 352.394L62.8206 356.936C63.2157 357.616 64.1854 358.171 64.9756 358.171H82.2135C83.0038 358.171 83.9735 357.616 84.3686 356.936L88.508 349.82C88.9031 349.141 88.905 348.028 88.5123 347.348ZM76.9449 346.635C77.5624 347.706 77.0508 348.582 75.8079 348.582H62.3996C61.1567 348.582 60.6482 347.707 61.2696 346.639L67.9791 335.104C68.6005 334.036 69.6174 334.036 70.2388 335.104L76.9449 346.635Z" fill="white"/>
</g>
<rect x="0.786865" y="0.5" width="1065.67" height="399" stroke="white" stroke-opacity="0.1"/>
<defs>
<radialGradient id="paint0_radial_63_336" cx="0" cy="0" r="1" gradientUnits="userSpaceOnUse" gradientTransform="translate(534.5 134.358) rotate(90) scale(343.561 585.061)">
<stop stop-color="#D9D9D9"/>
<stop offset="1" stop-color="#D9D9D9" stop-opacity="0"/>
</radialGradient>
<radialGradient id="paint1_radial_63_336" cx="0" cy="0" r="1" gradientUnits="userSpaceOnUse" gradientTransform="translate(534.5 195.949) rotate(90) scale(281.97 480.176)">
<stop stop-color="#0A3FFF"/>
<stop offset="1" stop-color="#B591F9" stop-opacity="0"/>
</radialGradient>
<linearGradient id="paint2_linear_63_336" x1="409.587" y1="117.976" x2="628.158" y2="129.761" gradientUnits="userSpaceOnUse">
<stop stop-color="#BE99FF"/>
<stop offset="0.583932" stop-color="#8CBDFF"/>
<stop offset="1" stop-color="#6D7CFF"/>
</linearGradient>
<clipPath id="clip0_63_336">
<rect x="0.286865" width="1066.67" height="400" fill="white"/>
</clipPath>
<clipPath id="clip1_63_336">
<rect width="1069" height="468" fill="white"/>
</clipPath>
</defs>
</svg>
